<mxfile host="Electron" agent="Mozilla/5.0 (Windows NT 10.0; Win64; x64) AppleWebKit/537.36 (KHTML, like Gecko) draw.io/24.7.8 Chrome/128.0.6613.36 Electron/32.0.1 Safari/537.36" version="24.7.8" pages="3">
  <diagram id="C5RBs43oDa-KdzZeNtuy" name="ESPTouch">
    <mxGraphModel dx="2261" dy="836" grid="1" gridSize="10" guides="1" tooltips="1" connect="1" arrows="1" fold="1" page="1" pageScale="1" pageWidth="827" pageHeight="1169" math="0" shadow="0">
      <root>
        <mxCell id="WIyWlLk6GJQsqaUBKTNV-0" />
        <mxCell id="WIyWlLk6GJQsqaUBKTNV-1" parent="WIyWlLk6GJQsqaUBKTNV-0" />
        <mxCell id="q5UfMPJFZLPRmLqAX2Nt-76" value="" style="rounded=0;whiteSpace=wrap;html=1;" parent="WIyWlLk6GJQsqaUBKTNV-1" vertex="1">
          <mxGeometry x="-820" y="700" width="630" height="560" as="geometry" />
        </mxCell>
        <mxCell id="q5UfMPJFZLPRmLqAX2Nt-41" value="" style="rounded=0;whiteSpace=wrap;html=1;dashed=1;dashPattern=8 8;" parent="WIyWlLk6GJQsqaUBKTNV-1" vertex="1">
          <mxGeometry x="-820" y="50" width="480" height="530" as="geometry" />
        </mxCell>
        <mxCell id="q5UfMPJFZLPRmLqAX2Nt-20" value="" style="rounded=0;whiteSpace=wrap;html=1;dashed=1;dashPattern=8 8;" parent="WIyWlLk6GJQsqaUBKTNV-1" vertex="1">
          <mxGeometry x="-93" y="50" width="385" height="250" as="geometry" />
        </mxCell>
        <mxCell id="q5UfMPJFZLPRmLqAX2Nt-0" value="" style="shape=cylinder3;whiteSpace=wrap;html=1;boundedLbl=1;backgroundOutline=1;size=15;" parent="WIyWlLk6GJQsqaUBKTNV-1" vertex="1">
          <mxGeometry x="-63" y="160" width="60" height="80" as="geometry" />
        </mxCell>
        <mxCell id="q5UfMPJFZLPRmLqAX2Nt-8" style="edgeStyle=orthogonalEdgeStyle;rounded=0;orthogonalLoop=1;jettySize=auto;html=1;exitX=0;exitY=0.5;exitDx=0;exitDy=0;" parent="WIyWlLk6GJQsqaUBKTNV-1" source="q5UfMPJFZLPRmLqAX2Nt-4" edge="1">
          <mxGeometry relative="1" as="geometry">
            <mxPoint x="-3" y="200" as="targetPoint" />
            <Array as="points">
              <mxPoint x="80" y="104" />
              <mxPoint x="80" y="200" />
            </Array>
          </mxGeometry>
        </mxCell>
        <mxCell id="F0W8u3M6W5kvR-qd7q4k-18" style="edgeStyle=orthogonalEdgeStyle;rounded=0;orthogonalLoop=1;jettySize=auto;html=1;exitX=0.5;exitY=1;exitDx=0;exitDy=0;entryX=0.5;entryY=0;entryDx=0;entryDy=0;fontFamily=Helvetica;fontSize=12;fontColor=default;" parent="WIyWlLk6GJQsqaUBKTNV-1" source="q5UfMPJFZLPRmLqAX2Nt-4" target="F0W8u3M6W5kvR-qd7q4k-16" edge="1">
          <mxGeometry relative="1" as="geometry" />
        </mxCell>
        <mxCell id="q5UfMPJFZLPRmLqAX2Nt-4" value="" style="rounded=0;whiteSpace=wrap;html=1;" parent="WIyWlLk6GJQsqaUBKTNV-1" vertex="1">
          <mxGeometry x="154.5" y="74" width="120" height="60" as="geometry" />
        </mxCell>
        <mxCell id="q5UfMPJFZLPRmLqAX2Nt-5" value="upload data" style="text;html=1;align=center;verticalAlign=middle;whiteSpace=wrap;rounded=0;" parent="WIyWlLk6GJQsqaUBKTNV-1" vertex="1">
          <mxGeometry x="187" y="89" width="60" height="30" as="geometry" />
        </mxCell>
        <mxCell id="q5UfMPJFZLPRmLqAX2Nt-7" value="&lt;h1 style=&quot;margin-top: 0px;&quot;&gt;ESPTouch&lt;/h1&gt;" style="text;html=1;whiteSpace=wrap;overflow=hidden;rounded=0;" parent="WIyWlLk6GJQsqaUBKTNV-1" vertex="1">
          <mxGeometry x="-827" width="130" height="40" as="geometry" />
        </mxCell>
        <mxCell id="q5UfMPJFZLPRmLqAX2Nt-9" value="&lt;span style=&quot;background-color: rgb(255, 255, 0);&quot;&gt;data&lt;/span&gt;" style="text;html=1;align=center;verticalAlign=middle;whiteSpace=wrap;rounded=0;" parent="WIyWlLk6GJQsqaUBKTNV-1" vertex="1">
          <mxGeometry x="-63" y="210" width="60" height="30" as="geometry" />
        </mxCell>
        <mxCell id="q5UfMPJFZLPRmLqAX2Nt-12" style="edgeStyle=orthogonalEdgeStyle;rounded=0;orthogonalLoop=1;jettySize=auto;html=1;entryX=0;entryY=0.5;entryDx=0;entryDy=0;" parent="WIyWlLk6GJQsqaUBKTNV-1" source="q5UfMPJFZLPRmLqAX2Nt-10" edge="1">
          <mxGeometry relative="1" as="geometry">
            <mxPoint x="157" y="90" as="targetPoint" />
            <Array as="points">
              <mxPoint x="40" y="90" />
              <mxPoint x="40" y="90" />
            </Array>
          </mxGeometry>
        </mxCell>
        <mxCell id="q5UfMPJFZLPRmLqAX2Nt-10" value="&lt;span style=&quot;background-color: rgb(255, 255, 0);&quot;&gt;EEPROM&lt;/span&gt;" style="shape=cylinder3;whiteSpace=wrap;html=1;boundedLbl=1;backgroundOutline=1;size=15;" parent="WIyWlLk6GJQsqaUBKTNV-1" vertex="1">
          <mxGeometry x="-63" y="64" width="60" height="80" as="geometry" />
        </mxCell>
        <mxCell id="q5UfMPJFZLPRmLqAX2Nt-14" value="system classes" style="swimlane;fontStyle=0;childLayout=stackLayout;horizontal=1;startSize=30;horizontalStack=0;resizeParent=1;resizeParentMax=0;resizeLast=0;collapsible=1;marginBottom=0;whiteSpace=wrap;html=1;" parent="WIyWlLk6GJQsqaUBKTNV-1" vertex="1">
          <mxGeometry x="-85.5" y="400" width="270" height="280" as="geometry" />
        </mxCell>
        <mxCell id="q5UfMPJFZLPRmLqAX2Nt-15" value="&lt;span style=&quot;background-color: rgb(255, 128, 0);&quot;&gt;designed class&lt;/span&gt;" style="text;strokeColor=none;fillColor=none;align=left;verticalAlign=middle;spacingLeft=4;spacingRight=4;overflow=hidden;points=[[0,0.5],[1,0.5]];portConstraint=eastwest;rotatable=0;whiteSpace=wrap;html=1;" parent="q5UfMPJFZLPRmLqAX2Nt-14" vertex="1">
          <mxGeometry y="30" width="270" height="30" as="geometry" />
        </mxCell>
        <mxCell id="q5UfMPJFZLPRmLqAX2Nt-16" value="&lt;span style=&quot;background-color: rgb(255, 128, 0);&quot;&gt;data class&lt;/span&gt;" style="text;strokeColor=none;fillColor=none;align=left;verticalAlign=middle;spacingLeft=4;spacingRight=4;overflow=hidden;points=[[0,0.5],[1,0.5]];portConstraint=eastwest;rotatable=0;whiteSpace=wrap;html=1;" parent="q5UfMPJFZLPRmLqAX2Nt-14" vertex="1">
          <mxGeometry y="60" width="270" height="30" as="geometry" />
        </mxCell>
        <mxCell id="q5UfMPJFZLPRmLqAX2Nt-30" value="&lt;span style=&quot;background-color: rgb(255, 128, 0);&quot;&gt;wifi class (only 1 can connect)&lt;/span&gt;" style="text;strokeColor=none;fillColor=none;align=left;verticalAlign=middle;spacingLeft=4;spacingRight=4;overflow=hidden;points=[[0,0.5],[1,0.5]];portConstraint=eastwest;rotatable=0;whiteSpace=wrap;html=1;" parent="q5UfMPJFZLPRmLqAX2Nt-14" vertex="1">
          <mxGeometry y="90" width="270" height="40" as="geometry" />
        </mxCell>
        <mxCell id="q5UfMPJFZLPRmLqAX2Nt-17" value="&amp;nbsp;&lt;span style=&quot;background-color: rgb(255, 255, 0);&quot;&gt;eeprom read/write class&lt;/span&gt;" style="text;strokeColor=none;fillColor=none;align=left;verticalAlign=middle;spacingLeft=4;spacingRight=4;overflow=hidden;points=[[0,0.5],[1,0.5]];portConstraint=eastwest;rotatable=0;whiteSpace=wrap;html=1;" parent="q5UfMPJFZLPRmLqAX2Nt-14" vertex="1">
          <mxGeometry y="130" width="270" height="40" as="geometry" />
        </mxCell>
        <mxCell id="q5UfMPJFZLPRmLqAX2Nt-18" value="&lt;span style=&quot;background-color: rgb(255, 255, 0);&quot;&gt;serial read/write class&lt;/span&gt;" style="text;strokeColor=none;fillColor=none;align=left;verticalAlign=middle;spacingLeft=4;spacingRight=4;overflow=hidden;points=[[0,0.5],[1,0.5]];portConstraint=eastwest;rotatable=0;whiteSpace=wrap;html=1;" parent="q5UfMPJFZLPRmLqAX2Nt-14" vertex="1">
          <mxGeometry y="170" width="270" height="40" as="geometry" />
        </mxCell>
        <mxCell id="q5UfMPJFZLPRmLqAX2Nt-19" value="&lt;span style=&quot;background-color: rgb(51, 255, 51);&quot;&gt;SD read/write class (&lt;/span&gt;&lt;span style=&quot;background-color: rgb(255, 255, 51);&quot;&gt;error logging&lt;/span&gt;&lt;span style=&quot;background-color: rgb(51, 255, 51);&quot;&gt;)&lt;/span&gt;" style="text;strokeColor=none;fillColor=none;align=left;verticalAlign=middle;spacingLeft=4;spacingRight=4;overflow=hidden;points=[[0,0.5],[1,0.5]];portConstraint=eastwest;rotatable=0;whiteSpace=wrap;html=1;" parent="q5UfMPJFZLPRmLqAX2Nt-14" vertex="1">
          <mxGeometry y="210" width="270" height="40" as="geometry" />
        </mxCell>
        <mxCell id="q5UfMPJFZLPRmLqAX2Nt-34" value="&lt;span style=&quot;background-color: rgb(255, 255, 0);&quot;&gt;needed function&lt;/span&gt;" style="text;strokeColor=none;fillColor=none;align=left;verticalAlign=middle;spacingLeft=4;spacingRight=4;overflow=hidden;points=[[0,0.5],[1,0.5]];portConstraint=eastwest;rotatable=0;whiteSpace=wrap;html=1;" parent="q5UfMPJFZLPRmLqAX2Nt-14" vertex="1">
          <mxGeometry y="250" width="270" height="30" as="geometry" />
        </mxCell>
        <mxCell id="q5UfMPJFZLPRmLqAX2Nt-21" value="&lt;h1 style=&quot;margin-top: 0px;&quot;&gt;Init task&lt;/h1&gt;" style="text;html=1;whiteSpace=wrap;overflow=hidden;rounded=0;" parent="WIyWlLk6GJQsqaUBKTNV-1" vertex="1">
          <mxGeometry x="179.5" y="250" width="180" height="120" as="geometry" />
        </mxCell>
        <mxCell id="q5UfMPJFZLPRmLqAX2Nt-24" value="" style="curved=1;endArrow=classic;html=1;rounded=0;entryX=0;entryY=0.5;entryDx=0;entryDy=0;dashed=1;strokeColor=#FF0000;strokeWidth=3;" parent="WIyWlLk6GJQsqaUBKTNV-1" target="q5UfMPJFZLPRmLqAX2Nt-16" edge="1">
          <mxGeometry width="50" height="50" relative="1" as="geometry">
            <mxPoint x="-33" y="240" as="sourcePoint" />
            <mxPoint x="327" y="400" as="targetPoint" />
            <Array as="points">
              <mxPoint x="-40" y="300" />
              <mxPoint x="-90" y="340" />
              <mxPoint x="-140" y="370" />
              <mxPoint x="-140" y="460" />
            </Array>
          </mxGeometry>
        </mxCell>
        <mxCell id="q5UfMPJFZLPRmLqAX2Nt-26" value="Designed class" style="swimlane;fontStyle=0;childLayout=stackLayout;horizontal=1;startSize=30;horizontalStack=0;resizeParent=1;resizeParentMax=0;resizeLast=0;collapsible=1;marginBottom=0;whiteSpace=wrap;html=1;" parent="WIyWlLk6GJQsqaUBKTNV-1" vertex="1">
          <mxGeometry x="214.5" y="400" width="140" height="120" as="geometry" />
        </mxCell>
        <mxCell id="q5UfMPJFZLPRmLqAX2Nt-27" value="desiged elements" style="text;strokeColor=none;fillColor=none;align=left;verticalAlign=middle;spacingLeft=4;spacingRight=4;overflow=hidden;points=[[0,0.5],[1,0.5]];portConstraint=eastwest;rotatable=0;whiteSpace=wrap;html=1;" parent="q5UfMPJFZLPRmLqAX2Nt-26" vertex="1">
          <mxGeometry y="30" width="140" height="30" as="geometry" />
        </mxCell>
        <mxCell id="q5UfMPJFZLPRmLqAX2Nt-35" value="active window" style="text;strokeColor=none;fillColor=none;align=left;verticalAlign=middle;spacingLeft=4;spacingRight=4;overflow=hidden;points=[[0,0.5],[1,0.5]];portConstraint=eastwest;rotatable=0;whiteSpace=wrap;html=1;" parent="q5UfMPJFZLPRmLqAX2Nt-26" vertex="1">
          <mxGeometry y="60" width="140" height="30" as="geometry" />
        </mxCell>
        <mxCell id="q5UfMPJFZLPRmLqAX2Nt-28" value="needed function" style="text;strokeColor=none;fillColor=none;align=left;verticalAlign=middle;spacingLeft=4;spacingRight=4;overflow=hidden;points=[[0,0.5],[1,0.5]];portConstraint=eastwest;rotatable=0;whiteSpace=wrap;html=1;" parent="q5UfMPJFZLPRmLqAX2Nt-26" vertex="1">
          <mxGeometry y="90" width="140" height="30" as="geometry" />
        </mxCell>
        <mxCell id="q5UfMPJFZLPRmLqAX2Nt-31" value="data class" style="swimlane;fontStyle=0;childLayout=stackLayout;horizontal=1;startSize=30;horizontalStack=0;resizeParent=1;resizeParentMax=0;resizeLast=0;collapsible=1;marginBottom=0;whiteSpace=wrap;html=1;" parent="WIyWlLk6GJQsqaUBKTNV-1" vertex="1">
          <mxGeometry x="380" y="400" width="280" height="90" as="geometry" />
        </mxCell>
        <mxCell id="q5UfMPJFZLPRmLqAX2Nt-32" value="datas ({tmps, humadity}, {HType, Switch}, clock hour+min, programs ) diff classes" style="text;strokeColor=none;fillColor=none;align=left;verticalAlign=middle;spacingLeft=4;spacingRight=4;overflow=hidden;points=[[0,0.5],[1,0.5]];portConstraint=eastwest;rotatable=0;whiteSpace=wrap;html=1;" parent="q5UfMPJFZLPRmLqAX2Nt-31" vertex="1">
          <mxGeometry y="30" width="280" height="30" as="geometry" />
        </mxCell>
        <mxCell id="q5UfMPJFZLPRmLqAX2Nt-33" value="needed function" style="text;strokeColor=none;fillColor=none;align=left;verticalAlign=middle;spacingLeft=4;spacingRight=4;overflow=hidden;points=[[0,0.5],[1,0.5]];portConstraint=eastwest;rotatable=0;whiteSpace=wrap;html=1;" parent="q5UfMPJFZLPRmLqAX2Nt-31" vertex="1">
          <mxGeometry y="60" width="280" height="30" as="geometry" />
        </mxCell>
        <mxCell id="q5UfMPJFZLPRmLqAX2Nt-44" style="edgeStyle=orthogonalEdgeStyle;rounded=0;orthogonalLoop=1;jettySize=auto;html=1;exitX=1;exitY=0.5;exitDx=0;exitDy=0;entryX=0;entryY=0.5;entryDx=0;entryDy=0;" parent="WIyWlLk6GJQsqaUBKTNV-1" source="q5UfMPJFZLPRmLqAX2Nt-39" target="q5UfMPJFZLPRmLqAX2Nt-43" edge="1">
          <mxGeometry relative="1" as="geometry" />
        </mxCell>
        <mxCell id="q5UfMPJFZLPRmLqAX2Nt-39" value="Device switched ON!" style="rounded=1;whiteSpace=wrap;html=1;" parent="WIyWlLk6GJQsqaUBKTNV-1" vertex="1">
          <mxGeometry x="-805" y="80" width="120" height="40" as="geometry" />
        </mxCell>
        <mxCell id="q5UfMPJFZLPRmLqAX2Nt-42" value="&lt;h1 style=&quot;margin-top: 0px;&quot;&gt;System flow&lt;/h1&gt;" style="text;html=1;whiteSpace=wrap;overflow=hidden;rounded=0;" parent="WIyWlLk6GJQsqaUBKTNV-1" vertex="1">
          <mxGeometry x="-490" y="540" width="180" height="120" as="geometry" />
        </mxCell>
        <mxCell id="q5UfMPJFZLPRmLqAX2Nt-50" style="edgeStyle=orthogonalEdgeStyle;rounded=0;orthogonalLoop=1;jettySize=auto;html=1;exitX=1;exitY=0.5;exitDx=0;exitDy=0;entryX=0;entryY=0.5;entryDx=0;entryDy=0;" parent="WIyWlLk6GJQsqaUBKTNV-1" source="q5UfMPJFZLPRmLqAX2Nt-43" target="q5UfMPJFZLPRmLqAX2Nt-49" edge="1">
          <mxGeometry relative="1" as="geometry" />
        </mxCell>
        <mxCell id="q5UfMPJFZLPRmLqAX2Nt-43" value="Init task" style="rounded=1;whiteSpace=wrap;html=1;" parent="WIyWlLk6GJQsqaUBKTNV-1" vertex="1">
          <mxGeometry x="-560" y="70" width="120" height="60" as="geometry" />
        </mxCell>
        <mxCell id="q5UfMPJFZLPRmLqAX2Nt-54" style="edgeStyle=orthogonalEdgeStyle;rounded=0;orthogonalLoop=1;jettySize=auto;html=1;entryX=0.5;entryY=0;entryDx=0;entryDy=0;" parent="WIyWlLk6GJQsqaUBKTNV-1" source="q5UfMPJFZLPRmLqAX2Nt-45" target="q5UfMPJFZLPRmLqAX2Nt-53" edge="1">
          <mxGeometry relative="1" as="geometry" />
        </mxCell>
        <mxCell id="q5UfMPJFZLPRmLqAX2Nt-45" value="main task" style="rounded=1;whiteSpace=wrap;html=1;" parent="WIyWlLk6GJQsqaUBKTNV-1" vertex="1">
          <mxGeometry x="-730" y="200" width="120" height="60" as="geometry" />
        </mxCell>
        <mxCell id="q5UfMPJFZLPRmLqAX2Nt-56" style="edgeStyle=orthogonalEdgeStyle;rounded=0;orthogonalLoop=1;jettySize=auto;html=1;exitX=0.5;exitY=1;exitDx=0;exitDy=0;" parent="WIyWlLk6GJQsqaUBKTNV-1" source="q5UfMPJFZLPRmLqAX2Nt-46" target="q5UfMPJFZLPRmLqAX2Nt-55" edge="1">
          <mxGeometry relative="1" as="geometry" />
        </mxCell>
        <mxCell id="q5UfMPJFZLPRmLqAX2Nt-46" value="wifi task (if enabled)" style="rounded=1;whiteSpace=wrap;html=1;" parent="WIyWlLk6GJQsqaUBKTNV-1" vertex="1">
          <mxGeometry x="-510" y="200" width="120" height="60" as="geometry" />
        </mxCell>
        <mxCell id="q5UfMPJFZLPRmLqAX2Nt-51" style="edgeStyle=orthogonalEdgeStyle;rounded=0;orthogonalLoop=1;jettySize=auto;html=1;exitX=0.5;exitY=1;exitDx=0;exitDy=0;entryX=0.5;entryY=0;entryDx=0;entryDy=0;" parent="WIyWlLk6GJQsqaUBKTNV-1" source="q5UfMPJFZLPRmLqAX2Nt-49" target="q5UfMPJFZLPRmLqAX2Nt-45" edge="1">
          <mxGeometry relative="1" as="geometry">
            <Array as="points">
              <mxPoint x="-380" y="170" />
              <mxPoint x="-670" y="170" />
            </Array>
          </mxGeometry>
        </mxCell>
        <mxCell id="q5UfMPJFZLPRmLqAX2Nt-52" style="edgeStyle=orthogonalEdgeStyle;rounded=0;orthogonalLoop=1;jettySize=auto;html=1;exitX=0.5;exitY=1;exitDx=0;exitDy=0;entryX=0.5;entryY=0;entryDx=0;entryDy=0;" parent="WIyWlLk6GJQsqaUBKTNV-1" source="q5UfMPJFZLPRmLqAX2Nt-49" target="q5UfMPJFZLPRmLqAX2Nt-46" edge="1">
          <mxGeometry relative="1" as="geometry">
            <Array as="points">
              <mxPoint x="-380" y="170" />
              <mxPoint x="-450" y="170" />
            </Array>
          </mxGeometry>
        </mxCell>
        <mxCell id="q5UfMPJFZLPRmLqAX2Nt-49" value="end&lt;div&gt;Task1&lt;/div&gt;" style="rounded=1;whiteSpace=wrap;html=1;" parent="WIyWlLk6GJQsqaUBKTNV-1" vertex="1">
          <mxGeometry x="-410" y="70" width="60" height="60" as="geometry" />
        </mxCell>
        <mxCell id="q5UfMPJFZLPRmLqAX2Nt-103" style="edgeStyle=orthogonalEdgeStyle;rounded=0;orthogonalLoop=1;jettySize=auto;html=1;exitX=1;exitY=0.5;exitDx=0;exitDy=0;" parent="WIyWlLk6GJQsqaUBKTNV-1" source="q5UfMPJFZLPRmLqAX2Nt-53" target="q5UfMPJFZLPRmLqAX2Nt-99" edge="1">
          <mxGeometry relative="1" as="geometry" />
        </mxCell>
        <mxCell id="q5UfMPJFZLPRmLqAX2Nt-53" value="end&lt;div&gt;main task&lt;/div&gt;" style="rounded=1;whiteSpace=wrap;html=1;fillStyle=auto;fillColor=#FFFFFF;perimeterSpacing=1;shadow=0;glass=0;" parent="WIyWlLk6GJQsqaUBKTNV-1" vertex="1">
          <mxGeometry x="-705" y="300" width="70" height="40" as="geometry" />
        </mxCell>
        <mxCell id="q5UfMPJFZLPRmLqAX2Nt-104" style="edgeStyle=orthogonalEdgeStyle;rounded=0;orthogonalLoop=1;jettySize=auto;html=1;exitX=0;exitY=0.5;exitDx=0;exitDy=0;" parent="WIyWlLk6GJQsqaUBKTNV-1" source="q5UfMPJFZLPRmLqAX2Nt-55" edge="1">
          <mxGeometry relative="1" as="geometry">
            <mxPoint x="-560" y="410" as="targetPoint" />
          </mxGeometry>
        </mxCell>
        <mxCell id="q5UfMPJFZLPRmLqAX2Nt-55" value="end&lt;div&gt;wifi task&lt;/div&gt;" style="rounded=1;whiteSpace=wrap;html=1;" parent="WIyWlLk6GJQsqaUBKTNV-1" vertex="1">
          <mxGeometry x="-480" y="290" width="60" height="60" as="geometry" />
        </mxCell>
        <mxCell id="q5UfMPJFZLPRmLqAX2Nt-59" value="" style="endArrow=none;dashed=1;html=1;rounded=0;" parent="WIyWlLk6GJQsqaUBKTNV-1" edge="1">
          <mxGeometry width="50" height="50" relative="1" as="geometry">
            <mxPoint x="-540" y="185" as="sourcePoint" />
            <mxPoint x="-540" y="370" as="targetPoint" />
          </mxGeometry>
        </mxCell>
        <mxCell id="q5UfMPJFZLPRmLqAX2Nt-62" value="" style="endArrow=none;dashed=1;html=1;rounded=0;" parent="WIyWlLk6GJQsqaUBKTNV-1" edge="1">
          <mxGeometry width="50" height="50" relative="1" as="geometry">
            <mxPoint x="-359" y="185" as="sourcePoint" />
            <mxPoint x="-359" y="370" as="targetPoint" />
          </mxGeometry>
        </mxCell>
        <mxCell id="q5UfMPJFZLPRmLqAX2Nt-64" value="" style="endArrow=none;dashed=1;html=1;rounded=0;" parent="WIyWlLk6GJQsqaUBKTNV-1" edge="1">
          <mxGeometry width="50" height="50" relative="1" as="geometry">
            <mxPoint x="-360" y="185" as="sourcePoint" />
            <mxPoint x="-540" y="185" as="targetPoint" />
          </mxGeometry>
        </mxCell>
        <mxCell id="q5UfMPJFZLPRmLqAX2Nt-65" value="" style="endArrow=none;dashed=1;html=1;rounded=0;" parent="WIyWlLk6GJQsqaUBKTNV-1" edge="1">
          <mxGeometry width="50" height="50" relative="1" as="geometry">
            <mxPoint x="-360" y="370" as="sourcePoint" />
            <mxPoint x="-540" y="370" as="targetPoint" />
          </mxGeometry>
        </mxCell>
        <mxCell id="q5UfMPJFZLPRmLqAX2Nt-66" value="" style="rounded=0;whiteSpace=wrap;html=1;dashed=1;dashPattern=8 8;" parent="WIyWlLk6GJQsqaUBKTNV-1" vertex="1">
          <mxGeometry x="-786" y="720" width="385" height="220" as="geometry" />
        </mxCell>
        <mxCell id="q5UfMPJFZLPRmLqAX2Nt-67" value="&lt;h1 style=&quot;margin-top: 0px;&quot;&gt;main task&lt;/h1&gt;&lt;div&gt;&lt;br&gt;&lt;/div&gt;" style="text;html=1;whiteSpace=wrap;overflow=hidden;rounded=0;" parent="WIyWlLk6GJQsqaUBKTNV-1" vertex="1">
          <mxGeometry x="-530" y="900" width="180" height="120" as="geometry" />
        </mxCell>
        <mxCell id="q5UfMPJFZLPRmLqAX2Nt-68" value="&lt;div&gt;-dht mesuring&lt;/div&gt;&lt;div&gt;-controller for heating system comm if needed&lt;/div&gt;&lt;div&gt;-clock update&lt;/div&gt;&lt;div&gt;-serial answare if needed&lt;/div&gt;&lt;div&gt;-touch sensing&lt;br&gt;&lt;/div&gt;&lt;div&gt;design print (active window)&lt;/div&gt;" style="rounded=0;whiteSpace=wrap;html=1;" parent="WIyWlLk6GJQsqaUBKTNV-1" vertex="1">
          <mxGeometry x="-760" y="770" width="260" height="100" as="geometry" />
        </mxCell>
        <mxCell id="q5UfMPJFZLPRmLqAX2Nt-71" style="edgeStyle=orthogonalEdgeStyle;rounded=0;orthogonalLoop=1;jettySize=auto;html=1;exitX=0.5;exitY=1;exitDx=0;exitDy=0;entryX=0.5;entryY=0;entryDx=0;entryDy=0;" parent="WIyWlLk6GJQsqaUBKTNV-1" source="q5UfMPJFZLPRmLqAX2Nt-68" target="q5UfMPJFZLPRmLqAX2Nt-68" edge="1">
          <mxGeometry relative="1" as="geometry">
            <Array as="points">
              <mxPoint x="-630" y="890" />
              <mxPoint x="-440" y="890" />
              <mxPoint x="-440" y="750" />
              <mxPoint x="-630" y="750" />
            </Array>
          </mxGeometry>
        </mxCell>
        <mxCell id="q5UfMPJFZLPRmLqAX2Nt-72" value="" style="rounded=0;whiteSpace=wrap;html=1;dashed=1;dashPattern=8 8;" parent="WIyWlLk6GJQsqaUBKTNV-1" vertex="1">
          <mxGeometry x="-785" y="970" width="385" height="220" as="geometry" />
        </mxCell>
        <mxCell id="q5UfMPJFZLPRmLqAX2Nt-73" value="&lt;h1 style=&quot;margin-top: 0px;&quot;&gt;wifi task&lt;/h1&gt;&lt;h1 style=&quot;margin-top: 0px;&quot;&gt;&lt;br style=&quot;font-size: 12px; font-weight: 400;&quot;&gt;&lt;/h1&gt;" style="text;html=1;whiteSpace=wrap;overflow=hidden;rounded=0;" parent="WIyWlLk6GJQsqaUBKTNV-1" vertex="1">
          <mxGeometry x="-510" y="1150" width="180" height="120" as="geometry" />
        </mxCell>
        <mxCell id="q5UfMPJFZLPRmLqAX2Nt-74" value="-wifi connection checking&lt;div&gt;-receiveing?&lt;/div&gt;&lt;div&gt;-send changed data!&lt;/div&gt;" style="rounded=0;whiteSpace=wrap;html=1;" parent="WIyWlLk6GJQsqaUBKTNV-1" vertex="1">
          <mxGeometry x="-770" y="1020" width="230" height="110" as="geometry" />
        </mxCell>
        <mxCell id="q5UfMPJFZLPRmLqAX2Nt-75" style="edgeStyle=orthogonalEdgeStyle;rounded=0;orthogonalLoop=1;jettySize=auto;html=1;exitX=0.5;exitY=1;exitDx=0;exitDy=0;entryX=0.5;entryY=0;entryDx=0;entryDy=0;" parent="WIyWlLk6GJQsqaUBKTNV-1" source="q5UfMPJFZLPRmLqAX2Nt-74" target="q5UfMPJFZLPRmLqAX2Nt-74" edge="1">
          <mxGeometry relative="1" as="geometry">
            <Array as="points">
              <mxPoint x="-655" y="1150" />
              <mxPoint x="-500" y="1150" />
              <mxPoint x="-500" y="1000" />
              <mxPoint x="-655" y="1000" />
            </Array>
          </mxGeometry>
        </mxCell>
        <mxCell id="q5UfMPJFZLPRmLqAX2Nt-77" value="&lt;h1 style=&quot;margin-top: 0px;&quot;&gt;&lt;span style=&quot;background-color: rgb(255, 0, 0);&quot;&gt;A variation&lt;/span&gt;&lt;/h1&gt;" style="text;html=1;whiteSpace=wrap;overflow=hidden;rounded=0;" parent="WIyWlLk6GJQsqaUBKTNV-1" vertex="1">
          <mxGeometry x="-345" y="1210" width="180" height="120" as="geometry" />
        </mxCell>
        <mxCell id="q5UfMPJFZLPRmLqAX2Nt-78" value="" style="rounded=0;whiteSpace=wrap;html=1;" parent="WIyWlLk6GJQsqaUBKTNV-1" vertex="1">
          <mxGeometry x="-130.5" y="700" width="620.5" height="830" as="geometry" />
        </mxCell>
        <mxCell id="q5UfMPJFZLPRmLqAX2Nt-79" value="" style="rounded=0;whiteSpace=wrap;html=1;dashed=1;dashPattern=8 8;" parent="WIyWlLk6GJQsqaUBKTNV-1" vertex="1">
          <mxGeometry x="-110.5" y="720" width="385" height="220" as="geometry" />
        </mxCell>
        <mxCell id="q5UfMPJFZLPRmLqAX2Nt-80" value="&lt;h1 style=&quot;margin-top: 0px;&quot;&gt;main task&lt;/h1&gt;&lt;div&gt;&lt;br&gt;&lt;/div&gt;" style="text;html=1;whiteSpace=wrap;overflow=hidden;rounded=0;" parent="WIyWlLk6GJQsqaUBKTNV-1" vertex="1">
          <mxGeometry x="149.5" y="900" width="180" height="120" as="geometry" />
        </mxCell>
        <mxCell id="q5UfMPJFZLPRmLqAX2Nt-81" value="&lt;div&gt;-dht mesuring&lt;/div&gt;&lt;div&gt;-controller for heating system comm if needed&lt;/div&gt;&lt;div&gt;-clock update&lt;/div&gt;&lt;div&gt;-&lt;span style=&quot;background-color: initial;&quot;&gt;if&amp;nbsp;&lt;/span&gt;&lt;span style=&quot;background-color: initial;&quot;&gt;-serial read &quot;BIOS&quot; end task&lt;/span&gt;&lt;/div&gt;&lt;div&gt;-touch sensing&lt;/div&gt;&lt;div&gt;-design print (active window)&lt;/div&gt;" style="rounded=0;whiteSpace=wrap;html=1;" parent="WIyWlLk6GJQsqaUBKTNV-1" vertex="1">
          <mxGeometry x="-85.5" y="770" width="260" height="100" as="geometry" />
        </mxCell>
        <mxCell id="q5UfMPJFZLPRmLqAX2Nt-83" value="" style="rounded=0;whiteSpace=wrap;html=1;dashed=1;dashPattern=8 8;" parent="WIyWlLk6GJQsqaUBKTNV-1" vertex="1">
          <mxGeometry x="-110.5" y="980" width="390" height="210" as="geometry" />
        </mxCell>
        <mxCell id="q5UfMPJFZLPRmLqAX2Nt-84" value="-wifi connection checking&lt;div&gt;-receiveing?&lt;/div&gt;&lt;div&gt;-send changed data!&lt;/div&gt;&lt;div&gt;if&amp;nbsp;&lt;span style=&quot;background-color: initial;&quot;&gt;-serial read &quot;BIOS&quot; end task!&lt;/span&gt;&lt;/div&gt;" style="rounded=0;whiteSpace=wrap;html=1;" parent="WIyWlLk6GJQsqaUBKTNV-1" vertex="1">
          <mxGeometry x="-70.5" y="1025" width="230" height="110" as="geometry" />
        </mxCell>
        <mxCell id="q5UfMPJFZLPRmLqAX2Nt-85" style="edgeStyle=orthogonalEdgeStyle;rounded=0;orthogonalLoop=1;jettySize=auto;html=1;exitX=0.5;exitY=1;exitDx=0;exitDy=0;entryX=0.5;entryY=0;entryDx=0;entryDy=0;" parent="WIyWlLk6GJQsqaUBKTNV-1" source="q5UfMPJFZLPRmLqAX2Nt-84" target="q5UfMPJFZLPRmLqAX2Nt-84" edge="1">
          <mxGeometry relative="1" as="geometry">
            <Array as="points">
              <mxPoint x="44.5" y="1150" />
              <mxPoint x="239.5" y="1150" />
              <mxPoint x="239.5" y="1000" />
              <mxPoint x="44.5" y="1000" />
            </Array>
          </mxGeometry>
        </mxCell>
        <mxCell id="q5UfMPJFZLPRmLqAX2Nt-86" value="&lt;h1 style=&quot;margin-top: 0px;&quot;&gt;&lt;span style=&quot;background-color: rgb(51, 255, 51);&quot;&gt;B variation&lt;/span&gt;&lt;/h1&gt;" style="text;html=1;whiteSpace=wrap;overflow=hidden;rounded=0;" parent="WIyWlLk6GJQsqaUBKTNV-1" vertex="1">
          <mxGeometry x="340" y="1480" width="180" height="120" as="geometry" />
        </mxCell>
        <mxCell id="q5UfMPJFZLPRmLqAX2Nt-108" value="" style="rounded=0;whiteSpace=wrap;html=1;dashed=1;dashPattern=8 8;" parent="WIyWlLk6GJQsqaUBKTNV-1" vertex="1">
          <mxGeometry x="-110.5" y="1210" width="390" height="270" as="geometry" />
        </mxCell>
        <mxCell id="F0W8u3M6W5kvR-qd7q4k-14" style="edgeStyle=orthogonalEdgeStyle;rounded=0;orthogonalLoop=1;jettySize=auto;html=1;exitX=0.5;exitY=1;exitDx=0;exitDy=0;entryX=0.5;entryY=0;entryDx=0;entryDy=0;fontFamily=Helvetica;fontSize=12;fontColor=default;" parent="WIyWlLk6GJQsqaUBKTNV-1" source="q5UfMPJFZLPRmLqAX2Nt-87" target="q5UfMPJFZLPRmLqAX2Nt-111" edge="1">
          <mxGeometry relative="1" as="geometry" />
        </mxCell>
        <mxCell id="q5UfMPJFZLPRmLqAX2Nt-87" value="serial communication" style="rounded=0;whiteSpace=wrap;html=1;" parent="WIyWlLk6GJQsqaUBKTNV-1" vertex="1">
          <mxGeometry x="-70.5" y="1300" width="130" height="60" as="geometry" />
        </mxCell>
        <mxCell id="q5UfMPJFZLPRmLqAX2Nt-88" value="&lt;span style=&quot;background-color: rgb(255, 255, 0);&quot;&gt;EEPROM&lt;/span&gt;" style="shape=cylinder3;whiteSpace=wrap;html=1;boundedLbl=1;backgroundOutline=1;size=15;" parent="WIyWlLk6GJQsqaUBKTNV-1" vertex="1">
          <mxGeometry x="119.5" y="1290" width="60" height="80" as="geometry" />
        </mxCell>
        <mxCell id="q5UfMPJFZLPRmLqAX2Nt-89" value="" style="endArrow=classic;startArrow=classic;html=1;rounded=0;entryX=0;entryY=0.5;entryDx=0;entryDy=0;entryPerimeter=0;exitX=1;exitY=0.5;exitDx=0;exitDy=0;" parent="WIyWlLk6GJQsqaUBKTNV-1" source="q5UfMPJFZLPRmLqAX2Nt-87" target="q5UfMPJFZLPRmLqAX2Nt-88" edge="1">
          <mxGeometry width="50" height="50" relative="1" as="geometry">
            <mxPoint x="79.5" y="1240" as="sourcePoint" />
            <mxPoint x="129.5" y="1190" as="targetPoint" />
          </mxGeometry>
        </mxCell>
        <mxCell id="q5UfMPJFZLPRmLqAX2Nt-90" style="edgeStyle=orthogonalEdgeStyle;rounded=0;orthogonalLoop=1;jettySize=auto;html=1;exitX=0.5;exitY=1;exitDx=0;exitDy=0;entryX=0.5;entryY=0;entryDx=0;entryDy=0;" parent="WIyWlLk6GJQsqaUBKTNV-1" source="q5UfMPJFZLPRmLqAX2Nt-87" target="q5UfMPJFZLPRmLqAX2Nt-87" edge="1">
          <mxGeometry relative="1" as="geometry">
            <Array as="points">
              <mxPoint x="-5.5" y="1380" />
              <mxPoint x="239.5" y="1380" />
              <mxPoint x="239.5" y="1260" />
              <mxPoint x="-5.5" y="1260" />
            </Array>
          </mxGeometry>
        </mxCell>
        <mxCell id="q5UfMPJFZLPRmLqAX2Nt-91" value="while string != &quot;Quit / Exit&quot;" style="text;html=1;align=center;verticalAlign=middle;whiteSpace=wrap;rounded=0;" parent="WIyWlLk6GJQsqaUBKTNV-1" vertex="1">
          <mxGeometry x="-5.5" y="1230" width="175" height="30" as="geometry" />
        </mxCell>
        <mxCell id="q5UfMPJFZLPRmLqAX2Nt-96" style="edgeStyle=orthogonalEdgeStyle;rounded=0;orthogonalLoop=1;jettySize=auto;html=1;exitX=0.5;exitY=1;exitDx=0;exitDy=0;entryX=0.5;entryY=0;entryDx=0;entryDy=0;" parent="WIyWlLk6GJQsqaUBKTNV-1" source="q5UfMPJFZLPRmLqAX2Nt-81" target="q5UfMPJFZLPRmLqAX2Nt-81" edge="1">
          <mxGeometry relative="1" as="geometry">
            <Array as="points">
              <mxPoint x="44.5" y="890" />
              <mxPoint x="219.5" y="890" />
              <mxPoint x="219.5" y="750" />
              <mxPoint x="44.5" y="750" />
            </Array>
          </mxGeometry>
        </mxCell>
        <mxCell id="q5UfMPJFZLPRmLqAX2Nt-97" value="&lt;span style=&quot;background-color: rgb(102, 255, 255);&quot;&gt;if enabled&lt;/span&gt;" style="text;html=1;align=center;verticalAlign=middle;whiteSpace=wrap;rounded=0;" parent="WIyWlLk6GJQsqaUBKTNV-1" vertex="1">
          <mxGeometry x="-70.5" y="1020" width="60" height="30" as="geometry" />
        </mxCell>
        <mxCell id="q5UfMPJFZLPRmLqAX2Nt-98" value="&lt;span style=&quot;background-color: rgb(102, 255, 255);&quot;&gt;if enabled&lt;/span&gt;" style="text;html=1;align=center;verticalAlign=middle;whiteSpace=wrap;rounded=0;" parent="WIyWlLk6GJQsqaUBKTNV-1" vertex="1">
          <mxGeometry x="-785" y="965" width="60" height="30" as="geometry" />
        </mxCell>
        <mxCell id="q5UfMPJFZLPRmLqAX2Nt-113" style="edgeStyle=orthogonalEdgeStyle;rounded=0;orthogonalLoop=1;jettySize=auto;html=1;exitX=0.5;exitY=1;exitDx=0;exitDy=0;entryX=0.5;entryY=0;entryDx=0;entryDy=0;" parent="WIyWlLk6GJQsqaUBKTNV-1" source="q5UfMPJFZLPRmLqAX2Nt-99" target="q5UfMPJFZLPRmLqAX2Nt-112" edge="1">
          <mxGeometry relative="1" as="geometry" />
        </mxCell>
        <mxCell id="q5UfMPJFZLPRmLqAX2Nt-99" value="serail task" style="rounded=1;whiteSpace=wrap;html=1;" parent="WIyWlLk6GJQsqaUBKTNV-1" vertex="1">
          <mxGeometry x="-620" y="390" width="120" height="60" as="geometry" />
        </mxCell>
        <mxCell id="q5UfMPJFZLPRmLqAX2Nt-105" value="&lt;h1 style=&quot;margin-top: 0px;&quot;&gt;wifi task&lt;/h1&gt;" style="text;html=1;whiteSpace=wrap;overflow=hidden;rounded=0;" parent="WIyWlLk6GJQsqaUBKTNV-1" vertex="1">
          <mxGeometry x="169.5" y="1150" width="180" height="120" as="geometry" />
        </mxCell>
        <mxCell id="q5UfMPJFZLPRmLqAX2Nt-110" value="&lt;h1 style=&quot;margin-top: 0px;&quot;&gt;Serial task&lt;/h1&gt;" style="text;html=1;whiteSpace=wrap;overflow=hidden;rounded=0;" parent="WIyWlLk6GJQsqaUBKTNV-1" vertex="1">
          <mxGeometry x="149.5" y="1440" width="180" height="120" as="geometry" />
        </mxCell>
        <mxCell id="q5UfMPJFZLPRmLqAX2Nt-111" value="End task" style="rounded=0;whiteSpace=wrap;html=1;" parent="WIyWlLk6GJQsqaUBKTNV-1" vertex="1">
          <mxGeometry x="-70.5" y="1400" width="130" height="60" as="geometry" />
        </mxCell>
        <mxCell id="F0W8u3M6W5kvR-qd7q4k-13" style="edgeStyle=orthogonalEdgeStyle;rounded=0;orthogonalLoop=1;jettySize=auto;html=1;entryX=0;entryY=0.5;entryDx=0;entryDy=0;fontFamily=Helvetica;fontSize=12;fontColor=default;" parent="WIyWlLk6GJQsqaUBKTNV-1" source="q5UfMPJFZLPRmLqAX2Nt-112" target="q5UfMPJFZLPRmLqAX2Nt-43" edge="1">
          <mxGeometry relative="1" as="geometry">
            <Array as="points">
              <mxPoint x="-780" y="520" />
              <mxPoint x="-780" y="150" />
              <mxPoint x="-640" y="150" />
              <mxPoint x="-640" y="100" />
            </Array>
          </mxGeometry>
        </mxCell>
        <mxCell id="q5UfMPJFZLPRmLqAX2Nt-112" value="Reboot device!" style="rounded=1;whiteSpace=wrap;html=1;" parent="WIyWlLk6GJQsqaUBKTNV-1" vertex="1">
          <mxGeometry x="-620" y="490" width="120" height="60" as="geometry" />
        </mxCell>
        <mxCell id="q5UfMPJFZLPRmLqAX2Nt-114" value="EEPROM container" style="swimlane;fontStyle=0;childLayout=stackLayout;horizontal=1;startSize=30;horizontalStack=0;resizeParent=1;resizeParentMax=0;resizeLast=0;collapsible=1;marginBottom=0;whiteSpace=wrap;html=1;" parent="WIyWlLk6GJQsqaUBKTNV-1" vertex="1">
          <mxGeometry x="-305" y="400" width="140" height="180" as="geometry">
            <mxRectangle x="-305" y="400" width="150" height="30" as="alternateBounds" />
          </mxGeometry>
        </mxCell>
        <mxCell id="q5UfMPJFZLPRmLqAX2Nt-115" value="programs" style="text;strokeColor=none;fillColor=none;align=left;verticalAlign=middle;spacingLeft=4;spacingRight=4;overflow=hidden;points=[[0,0.5],[1,0.5]];portConstraint=eastwest;rotatable=0;whiteSpace=wrap;html=1;" parent="q5UfMPJFZLPRmLqAX2Nt-114" vertex="1">
          <mxGeometry y="30" width="140" height="30" as="geometry" />
        </mxCell>
        <mxCell id="q5UfMPJFZLPRmLqAX2Nt-116" value="active prog" style="text;strokeColor=none;fillColor=none;align=left;verticalAlign=middle;spacingLeft=4;spacingRight=4;overflow=hidden;points=[[0,0.5],[1,0.5]];portConstraint=eastwest;rotatable=0;whiteSpace=wrap;html=1;" parent="q5UfMPJFZLPRmLqAX2Nt-114" vertex="1">
          <mxGeometry y="60" width="140" height="30" as="geometry" />
        </mxCell>
        <mxCell id="q5UfMPJFZLPRmLqAX2Nt-117" value="hour, min" style="text;strokeColor=none;fillColor=none;align=left;verticalAlign=middle;spacingLeft=4;spacingRight=4;overflow=hidden;points=[[0,0.5],[1,0.5]];portConstraint=eastwest;rotatable=0;whiteSpace=wrap;html=1;" parent="q5UfMPJFZLPRmLqAX2Nt-114" vertex="1">
          <mxGeometry y="90" width="140" height="30" as="geometry" />
        </mxCell>
        <mxCell id="F0W8u3M6W5kvR-qd7q4k-0" value="tmp offset" style="text;strokeColor=none;fillColor=none;align=left;verticalAlign=middle;spacingLeft=4;spacingRight=4;overflow=hidden;points=[[0,0.5],[1,0.5]];portConstraint=eastwest;rotatable=0;whiteSpace=wrap;html=1;" parent="q5UfMPJFZLPRmLqAX2Nt-114" vertex="1">
          <mxGeometry y="120" width="140" height="30" as="geometry" />
        </mxCell>
        <mxCell id="F0W8u3M6W5kvR-qd7q4k-1" value="wifi connection datas" style="text;strokeColor=none;fillColor=none;align=left;verticalAlign=middle;spacingLeft=4;spacingRight=4;overflow=hidden;points=[[0,0.5],[1,0.5]];portConstraint=eastwest;rotatable=0;whiteSpace=wrap;html=1;" parent="q5UfMPJFZLPRmLqAX2Nt-114" vertex="1">
          <mxGeometry y="150" width="140" height="30" as="geometry" />
        </mxCell>
        <mxCell id="q5UfMPJFZLPRmLqAX2Nt-118" value="" style="curved=1;endArrow=classic;html=1;rounded=0;entryX=0.5;entryY=0;entryDx=0;entryDy=0;dashed=1;strokeColor=#FF0000;strokeWidth=3;" parent="WIyWlLk6GJQsqaUBKTNV-1" target="q5UfMPJFZLPRmLqAX2Nt-114" edge="1">
          <mxGeometry width="50" height="50" relative="1" as="geometry">
            <mxPoint x="-63" y="105" as="sourcePoint" />
            <mxPoint x="-123" y="270" as="targetPoint" />
            <Array as="points">
              <mxPoint x="-160" y="105" />
              <mxPoint x="-230" y="170" />
            </Array>
          </mxGeometry>
        </mxCell>
        <mxCell id="F0W8u3M6W5kvR-qd7q4k-2" value="&lt;span style=&quot;background-color: rgb(255, 255, 0);&quot;&gt;data&lt;/span&gt;" style="shape=cylinder3;whiteSpace=wrap;html=1;boundedLbl=1;backgroundOutline=1;size=15;" parent="WIyWlLk6GJQsqaUBKTNV-1" vertex="1">
          <mxGeometry x="-325" y="740" width="120" height="180" as="geometry" />
        </mxCell>
        <mxCell id="F0W8u3M6W5kvR-qd7q4k-8" value="" style="endArrow=classic;startArrow=classic;html=1;rounded=0;entryX=0;entryY=0.5;entryDx=0;entryDy=0;entryPerimeter=0;" parent="WIyWlLk6GJQsqaUBKTNV-1" target="F0W8u3M6W5kvR-qd7q4k-2" edge="1">
          <mxGeometry width="50" height="50" relative="1" as="geometry">
            <mxPoint x="-400" y="830" as="sourcePoint" />
            <mxPoint x="-350" y="780" as="targetPoint" />
          </mxGeometry>
        </mxCell>
        <mxCell id="F0W8u3M6W5kvR-qd7q4k-9" value="" style="endArrow=classic;startArrow=classic;html=1;rounded=0;entryX=0.5;entryY=1;entryDx=0;entryDy=0;entryPerimeter=0;" parent="WIyWlLk6GJQsqaUBKTNV-1" target="F0W8u3M6W5kvR-qd7q4k-2" edge="1">
          <mxGeometry width="50" height="50" relative="1" as="geometry">
            <mxPoint x="-400" y="1114.41" as="sourcePoint" />
            <mxPoint x="-325" y="1114.41" as="targetPoint" />
            <Array as="points">
              <mxPoint x="-265" y="1114" />
            </Array>
          </mxGeometry>
        </mxCell>
        <mxCell id="F0W8u3M6W5kvR-qd7q4k-10" value="&lt;span style=&quot;background-color: rgb(255, 255, 0);&quot;&gt;data&lt;/span&gt;" style="shape=cylinder3;whiteSpace=wrap;html=1;boundedLbl=1;backgroundOutline=1;size=15;" parent="WIyWlLk6GJQsqaUBKTNV-1" vertex="1">
          <mxGeometry x="350" y="740" width="120" height="180" as="geometry" />
        </mxCell>
        <mxCell id="F0W8u3M6W5kvR-qd7q4k-11" value="" style="endArrow=classic;startArrow=classic;html=1;rounded=0;entryX=0;entryY=0.5;entryDx=0;entryDy=0;entryPerimeter=0;" parent="WIyWlLk6GJQsqaUBKTNV-1" edge="1">
          <mxGeometry width="50" height="50" relative="1" as="geometry">
            <mxPoint x="275" y="829.41" as="sourcePoint" />
            <mxPoint x="350" y="829.41" as="targetPoint" />
          </mxGeometry>
        </mxCell>
        <mxCell id="F0W8u3M6W5kvR-qd7q4k-12" value="" style="endArrow=classic;startArrow=classic;html=1;rounded=0;entryX=0.5;entryY=1;entryDx=0;entryDy=0;entryPerimeter=0;" parent="WIyWlLk6GJQsqaUBKTNV-1" edge="1">
          <mxGeometry width="50" height="50" relative="1" as="geometry">
            <mxPoint x="279.5" y="1114.41" as="sourcePoint" />
            <mxPoint x="414.5" y="920" as="targetPoint" />
            <Array as="points">
              <mxPoint x="414.5" y="1114" />
            </Array>
          </mxGeometry>
        </mxCell>
        <mxCell id="F0W8u3M6W5kvR-qd7q4k-16" value="End Task" style="rounded=0;whiteSpace=wrap;html=1;" parent="WIyWlLk6GJQsqaUBKTNV-1" vertex="1">
          <mxGeometry x="155" y="184" width="120" height="60" as="geometry" />
        </mxCell>
      </root>
    </mxGraphModel>
  </diagram>
  <diagram id="vcpjxSTGsjfxv2p7aLN4" name="eeprom">
    <mxGraphModel dx="766" dy="827" grid="1" gridSize="10" guides="1" tooltips="1" connect="0" arrows="1" fold="1" page="1" pageScale="1" pageWidth="827" pageHeight="1169" math="0" shadow="0">
      <root>
        <mxCell id="0" />
        <mxCell id="1" parent="0" />
        <mxCell id="lREojvBChQipQjGddZCE-2" value="&lt;h1 style=&quot;margin-top: 0px;&quot;&gt;Emulated EEPROM&amp;nbsp;&lt;/h1&gt;" style="text;html=1;whiteSpace=wrap;overflow=hidden;rounded=0;" parent="1" vertex="1">
          <mxGeometry width="310" height="40" as="geometry" />
        </mxCell>
        <mxCell id="lREojvBChQipQjGddZCE-3" value="&lt;b&gt;&lt;font style=&quot;font-size: 14px;&quot;&gt;Menu with params&lt;/font&gt;&lt;/b&gt;" style="whiteSpace=wrap;html=1;aspect=fixed;" parent="1" vertex="1">
          <mxGeometry x="80" y="60" width="120" height="120" as="geometry" />
        </mxCell>
        <mxCell id="lREojvBChQipQjGddZCE-4" value="" style="curved=1;endArrow=classic;html=1;rounded=0;entryX=0;entryY=0.143;entryDx=0;entryDy=0;entryPerimeter=0;exitX=0;exitY=0.75;exitDx=0;exitDy=0;" parent="1" source="lREojvBChQipQjGddZCE-3" target="lREojvBChQipQjGddZCE-7" edge="1">
          <mxGeometry width="50" height="50" relative="1" as="geometry">
            <mxPoint x="210" y="100" as="sourcePoint" />
            <mxPoint x="420" y="70" as="targetPoint" />
            <Array as="points">
              <mxPoint x="70" y="180" />
              <mxPoint x="50" y="210" />
            </Array>
          </mxGeometry>
        </mxCell>
        <mxCell id="lREojvBChQipQjGddZCE-6" value="" style="rounded=0;whiteSpace=wrap;html=1;" parent="1" vertex="1">
          <mxGeometry x="44" y="225" width="740" height="375" as="geometry" />
        </mxCell>
        <mxCell id="lREojvBChQipQjGddZCE-7" value="&lt;h1 style=&quot;margin-top: 0px;&quot;&gt;params maxelem/param&lt;/h1&gt;&lt;p&gt;&lt;br&gt;&lt;/p&gt;" style="text;html=1;whiteSpace=wrap;overflow=hidden;rounded=0;" parent="1" vertex="1">
          <mxGeometry x="44" y="215" width="190" height="70" as="geometry" />
        </mxCell>
        <mxCell id="lREojvBChQipQjGddZCE-8" value="&lt;div&gt;&lt;div&gt;wifi:&amp;nbsp;&lt;/div&gt;&lt;div&gt;&lt;span style=&quot;white-space: pre;&quot;&gt;&#x9;&lt;/span&gt;username: 8 char&lt;/div&gt;&lt;div&gt;&lt;span style=&quot;white-space: pre;&quot;&gt;&#x9;&lt;/span&gt;pw:&lt;span style=&quot;white-space: pre;&quot;&gt;&#x9;&lt;/span&gt;&lt;span style=&quot;white-space: pre;&quot;&gt;&#x9;&lt;/span&gt;&amp;nbsp; 8 char&lt;/div&gt;&lt;div&gt;&lt;span style=&quot;white-space: pre;&quot;&gt;&#x9;&lt;/span&gt;ip:&lt;span style=&quot;white-space: pre;&quot;&gt;&#x9;&lt;/span&gt;&lt;span style=&quot;white-space: pre;&quot;&gt;&#x9;&lt;/span&gt;&amp;nbsp; 16 char&amp;nbsp;&lt;br&gt;&lt;div&gt;&lt;span style=&quot;white-space: pre;&quot;&gt;&#x9;&lt;/span&gt;host:&lt;span style=&quot;white-space: pre;&quot;&gt;&#x9;&amp;nbsp;&lt;/span&gt;&amp;nbsp;1 uint&lt;br&gt;&lt;/div&gt;&lt;/div&gt;&lt;div&gt;&lt;span style=&quot;white-space: pre;&quot;&gt;&#x9;&lt;/span&gt;enable/dis: 1 bool&lt;br&gt;&lt;/div&gt;&lt;div&gt;Clock :&lt;div&gt;&lt;span style=&quot;white-space: pre;&quot;&gt;&#x9;&lt;/span&gt;&lt;span style=&quot;background-color: rgb(255, 153, 51);&quot;&gt;hour: 1 uint&lt;/span&gt;&lt;/div&gt;&lt;div&gt;&lt;span style=&quot;white-space: pre; background-color: rgb(255, 255, 255);&quot;&gt;&#x9;&lt;/span&gt;&lt;span style=&quot;background-color: rgb(255, 153, 51);&quot;&gt;min: 1 uint&lt;/span&gt;&lt;/div&gt;&lt;div&gt;&lt;div&gt;offsets:&lt;/div&gt;&lt;div&gt;&lt;span style=&quot;white-space: pre;&quot;&gt;&#x9;&lt;/span&gt;&lt;span style=&quot;background-color: rgb(255, 153, 51);&quot;&gt;active program 1 uint&lt;/span&gt;&lt;br&gt;&lt;/div&gt;&lt;div&gt;&lt;span style=&quot;white-space: pre;&quot;&gt;&#x9;&lt;/span&gt;dht tmp offset&lt;span style=&quot;white-space: pre;&quot;&gt;&#x9;&lt;/span&gt;&amp;nbsp;1 int&lt;/div&gt;&lt;/div&gt;&lt;/div&gt;&lt;div&gt;prog:&lt;/div&gt;&lt;div&gt;&lt;span style=&quot;white-space: pre;&quot;&gt;&#x9;&lt;/span&gt;&lt;span style=&quot;background-color: rgb(255, 153, 51);&quot;&gt;5x24 double&amp;nbsp;&lt;/span&gt;&lt;br&gt;&lt;/div&gt;&lt;div&gt;&lt;br&gt;&lt;/div&gt;&lt;/div&gt;" style="text;html=1;align=left;verticalAlign=middle;whiteSpace=wrap;rounded=0;" parent="1" vertex="1">
          <mxGeometry x="54" y="260" width="240" height="250" as="geometry" />
        </mxCell>
        <mxCell id="lREojvBChQipQjGddZCE-9" value="" style="shape=image;verticalLabelPosition=bottom;labelBackgroundColor=default;verticalAlign=top;aspect=fixed;imageAspect=0;image=data:image/png,iVBORw0KGgoAAAANSUhEUgAAANIAAACRCAYAAAC2VeaAAAAAAXNSR0IArs4c6QAAAARnQU1BAACxjwv8YQUAAAAJcEhZcwAADsMAAA7DAcdvqGQAABKESURBVHhe7Z1dbFTHFcdP0lASWGwDG1hjmy4RH2slEBOtiBKkhLyUxEFVJaQq4jF9bKS2b23z0hfavlRtpSiP9I23SH2IrJA+1BKKmlRWQfkQOIbYFfiLGAvb17GWJqVzZubeO/djr+/dnf3k/5MW9sN7d3funJkz557/nEf279//gAAAdfGo/h8AUAcwJAAsAEMCwAIwJAAsAEMCwAIwJAAsAEMCwAIwJAAsAEMCwAIwJAAsUL8hHS/Smbf2Uk4/tE3h3PN05m11O3V6q34WdCK500/TmXM9+lF30fYz0sLFT+j985/QxLR+ArSe/r10ige3ZhuF/NwiFfTDdgKuHciEnFXOEs1iYAtQf/Y3u3YnN2hiKk/lsnLwnImrNH6pIu8z7J6VD+gH5NDkhS9oal4/pB4qvz3sjzIrMzT+zqL4qyB8jNLd4HFd1PEXaeL8DC3o50AD4BnhlQ0av7iq2pyu0fviflrYCE/tvkUTNOz1h4Ux4W1c0a8dWgqce/+5DSqZfcQj2Jfk3+s+SNTc/vC93t7e3+r7tdHfR4ePDtK+yk16/92v6Msb31Lx9UHacuNrWhYtwj/uxcE5Gv/jJH1+eZbmtu2h8uvbafXyPdEMW+nQW0cp//lV+vCv/6EvLy/RgxMlKh9coy8/CxpMTnxGfmOBZm5+p5/x4df27VynOXlM0DCcdZrR50W2OS1FzlMS3z+4h4pPD1DPTX2+nS303Gif7AvL3zxK+17I0wPdb0j0jR+8tp8en5qhL29+I87trOxb+45X6NPzX9C/+fFl928FYkD/4cv/FcajXpvbNkAvvvYozf1rne7rP2kkdlw7nkXckWn+Hs2u5GjgGAcGeqgkRoiFj/xRxrl0gyZX9tLgcfHgeD8d6V2k694sU6Gp92bIObArkx+s1lGYjTqC6Wu+V3FlWZwz3RfmRT+YdvuNQAzQA4G+kUxheK+Y3fw+4Fy6RQu9eerv1080mAaskSq0tqzvShxaSerhKxuYRR5aKrSyou8KFq4tUu5Qn4wA547liSbmUw6OW2nHLmFMo36E90ysK9g4GmBI6kc5d9yRJEe9gV+0lXp79V2m94lg6LwQegy6GO4LxkDLM5ScRbZS/yGi2U/Tu40Mr7c4wuvfzLV4Y7FvSNpduy0WkESrdHta2MZJ/zpT7vQQFYQreJ1f11N7ybs+JNZM4m+d1CORQl1ras+wKKiO6gtLNO919lW6PkF05OxBGli+FTWCefZetCsYoELzU46YkVrXB+xE7Ub36gdMNFoSjNqFXw9F7YQP7UeCQq9p4qOCiNo1nvjzETxn1QlG1QRxEVqODL5ZJEdH8yIE+ltS1E5QJQLcCLD5CWgvpCE9Qdc7bFDEBVnQRgjX/mwxQ5ChfcCMBNoAvp44ItbW4m5KN7HdgCEBYAG4dgBYAIYEgAVgSABYAIYEgAVgSABYwJoh8VVlThYsR9I3AFDIPgKpeePgFB/sx9BhcKpOs+XmD4PU3Ln0hcy4jc2PAl1GD5VHt9PCNAQwLhYuyJqJjGEZuZrOy3SDru8eiZcXm0mGLuGr2zqRkULJqqA1uDLz8btDUjqeNhNBnu+WSc2N7AmJ3STn+qXmVFEy4Mtr1PNSL1WuGPJfAcuLD5f3e/LiuW199MyIkgA7N78W75ul1aFBX37MxwrLl3fkqHi8j2guXmoOmohw6U6dWKeJdxfpPkvHt62mlpu3UmqeO12i8iN6OwT5XrvbEjRnjWTIi51Pl8gJi/k2Y36RxoXbiNmo1Si9mCnpzozRF5ouNc+4hUEWEP4GqcmdPkhHlq9ZXAc3T2rOa/iJ6b1iGaJetx3cgiGBlLD8W3TxA8NeZ5XrEfn4aTpU0yYjzZWau5uNvn/+GjnlEavG1BaG5Nx1vJEoFhn2RIi8tVRo6h2zkwpXe0KsMjgwVOPeCK2TmgdnQhs0QGrO+NEUN1LjRXZiFZChiAqidh1B5NxuQjCqJmia1DwcsROE+1idQI8E2ovYgbb9wRoJtBFi5oDUHIBaMVwvyy5Xs4AhAWABuHYAWACGBIAFYEgAWACGBIAFYEgAWKAzDEmnCLVUpiy/Q0Z1Zjt87zaCMw8gNQfNhVNh3vLL4bQd/P2aPUjUMpg1ic4wJK1H6rgLdZ36vTcFUvMwdpJWT24YyYcsPR+iFSNptZrUXBFOKAxKgM3aSuG6SEyw9pJC/R2J4x4keu8W9b7palOSazNFjh9JyE0vT0783nzc4WUl1dZJlt7fyFyzYsxMVOW7tyATAFLzKHaqmu//lma86tFbaZ8hOU+SmqeRADuf8XNKjh6pai46pJQ9S3nxEj14tkD5+Wv04d++ES8+RrtP7KcjLzxBsxeu0Mdj/PpBemrnkj4GN6xZUX2N8m8cpX3OLCvaVYf+SR9Ny/e6MucttJRSopz4vbnNThSp6FaCd7bQMy/vUJXeuXI4t4N47vAe0Yl0NfioNJrb+UnK3ctWWbxu3DaH1DxAc1w7MWq6I3Ks1LxGCTDLi2ma5cqM0qTQruCxF8bcEUu9ntttSJlphia8mYK1MI44pvL5C69w8uQNb7SzDqf4uyO5lFxvpx2ZxHGrotM0220Ugw+k5rG0fI1UjwSYBYF+4ygFpzOVcqThos+9YnTVn+spPkFVIDWvTlsEG2qVADt31sW/buMI/zcww6SAZwX5ucat6wIDtoDUPAk7huS5arzuiFsUpiWLBNh1M4yGC6stk5AnrUjlKo0ZlL+LhX1sAKCBLGwIFzjkmgTgYIPo0E0LP0NqnoQVGYUZoVoYu0Y0GozaVZeahyMpgkAUKhhVc/EiXJGomiAkL+79yI8QRr5LzPH9iKL53Tg6xNG/XXQ7VaQnxfdOiHS6JEeh9Ge0IGrnEm3PZIK/RwCpeTsQNRT3uYGpULgZdA6BgbZz6IwLsrGwf63vushIjxin7sCIOhMxEEJq3gJiXLvgxV7QGRiuVwtd1XqA1BwAC3SwawdA+wBDAsACMCQALABDAsACMCQALGDfkPiCmjUVI1+9T8jjkp+l8r7OtKlyEvhw5gGk5u2Iq0C9MBNMMwGNIzB4iVsz5fBWB2m7wLUDGRAewpt5mr3gJq5epUmqnvj7MGHngmwkwyCYYBmUg5uJhtF8uWAipE7mHFuigVGdfV010TEuP8u4Ys7EXTWX70XtpVTEtDOf29LddG3nnttulJrXPyNx445uFz9Ij1IhN4t/XHmXr/sZ5zR50XHTT885OjLKJy/7CFg4JxpuWRiP+95dw6j6Vw/z92h2ZS+VXXdODKDlA0423dCBYWl48pyMLXrSB6WcNmUjplBTq4Fl32IDUH0pIN8Q3+VUmbcdUK+NT2z3v6fAFSWq9/HNnhExdRtSsiS7h0pihFj4yB9lnEs3aFKcjKimpBo86rg/WsvFk8pkevTQ4AHR6N4MVKEp8T0i79XrLMxGaVCapPGpvFonjYpTn1WLJLwCr60hNc+CoYC0gFLFpqCfxYa+tFjewtolkBF2j55Xrrc76ot2LaceFMNAap6BHPUGhoEY+UMGcnu2Ey2zUjINphugb+H1FUjP8X6xxvBnee6crJItnKw1cgepuUeyJHuVbk+LkcJoaCUvnqHrhtQht0f/IOnnJp0S7SpeS5Fm7/rzm123kCFV+yNU92LudqT3cUg9sAWB1DyAGQ2Jl2QHo3ahaImOmknzEQY2IfzvciBqV00KzifCjNK4mMcPR2rENwxH5xC1y0SkzTPohyLvhdQcgAYhDQlScwDqQMwckJoDUCuG6wWpOQAPL3DtALAADAkAC8CQALAADAkAC8CQALCAxahd6OqxG8Y0Mxcsa0BAZyEzDzJsut9JWJuRpN6DfN2R11iNloNzykg7V//uVrjdOZMaVc0l9gxpd4ZqeaDD6UFV8xCWXDvl1iWWU6maQxVKTI0kMoZej3UZTcLuo35/h14xb0dQ1TxKnVXNuZOO0HMvFSj/ONH39xXo8EuD4tZnVKfW7MhRMVIVnH+cWVl8iR6cKFH54JpXKbtwrp9W33WrWK9Rz4+GVeXxqTav/t2tsNQFVc0j1OnaaS0974ewoiQKcYKqqmihmC8nrtDUe2ItZUiCFy6ao4bSN3n6pVS0ovp3tyIGPlQ1j6X14e+VTURh7qJW33xdE2g2qGpendYbklfIWcNl+/VduQ4aDRZcnhAzEmgFqGqeRGsNSU/tJe8HKdfBCYxERkOL2SkyI7Vd9e9uBVXNk2h41C4YSXExIyZVonKagEx9ZYYml4s0ENqQMDlag6hdo5DtnjVqFysFN9DRWEjNAaiHqpdJ2pvWr5EA8BAzB6TmANSK4Xp1qAsOQwLAAnDtALAADAkAC8CQALAADAkAC8CQALBAww2JrzYjPQcw3dwXMCOB7HD2QSvyF+XndrnUHDwcyFnlLNEssvADWE1ajZPxykTCKvJiRei9gURG9RpXPb897CavBhMVGZXYalc6DGLgGeGVDRq/uOrJzbNkIST1BflaQ6XmjaVOqTmjDYErRsfIeMPy4rltffTMiCkBHqId41/Qx2P8PiU1L+1copmb34lXH6PdJwpUPDrovX916Ck6dsCXojM58fq+nes0Z1k+DEI46zSj2122OWWT77dSat5o6nftQnVFY5n25cWqDLwv3nMuzRizi65avjskuDLezypK2hUUAyrBFmajjsA4l02XmjeQug1JFkfeTC6ehLtwNVWXIQI1Y6/MoKBy19A8qXmjqduQUpfrj6VHFm/m+q0B1SV4SGiu1LyR1O/ayR9fpHId+nfnjm4wMTuVY2akzeCF75k2DYuC6rROam4fC8GGilgIrlH+jaP0nNzTjm9b5AKS5xa5wDT3Pgvsb1ehVQ4+vPyUep9YSE6Lhsx7f6+CDY/fEovHhDkewYZm4e5jyO0tHu58Up23oWDwpxpusEH1kUEqbp+LSM3vy6DDHnL++VXMORd9TQYojuhj+Psn3r/5tQowvKH7Et+e/bZpwQbokUB7wWtmSM0BqIetkJoDUDvGRXlIzQF4eIFrB4AFHimVSpiRAIjhd78/L///za/flv8ngRkJAAtgjQRAFf78lz/J/3/x81/K/5PAjASABTrDkNzEVkjWuxjOmqi1PEzraY4hcQUBVB7vDgKF36p3fJX/+DyVI3lxDaSF/awzZqT5RRrnbN4OvFDXXYhZY5RIlTvlTH2iI2/GJIqKDl3etUgLlmsQtTN2gg08Eng1a0jWkpXiLZk3lVx5nEeu0t2rNEEHPS2SKUVXMnJ13zuuhqXFZbpB13ePVJGx69pI+pEiJFXX35GlHOaxQQpk2+VpNiD9V21OY1dp5aTaJiC2zlEEft8QrYwt0cCo7jOh+kbB+lvGc5/2bdrPAtkTTDiDIqYP/3j0D/J+mmCDhexv0QA/5ca8ouXis1omLmBpMkuCEyqPc+Z28ekCFSuq4nRYiu58po65OjRI+Y0F/9gCziY+XN5fVcZeODdCh+9pCbyUKffR8tgV+nxKvV8is9H7iFONzWODFMi220ZrV3zJt9vm43//LlXmvg9Xnx+g4iFXSm5uO1Ch+zv76PCh//nZ3P15OvbCYzT7wTwtz2/ezwrnynRsw90OQRz75aN0zNvSIL4Pv/raq/K9H3xwSf6fhCXXzpAI1wKPPHp0CEvRN6WqjL2HBsUs5alr5+/RrHA1IhXRtduI2SgrKsE0N23ohsQMVeJNaGp2wdlbcGcQve2AVsyGpeOsoA18diLcF8zvVaGpj3w1rqK+PmzBkFZpQvx4Ko/oBWh2cZUzZeiIZMe2kUKvZMyFYR3pk3sAOJlVlyAennmOkD8AuoblGPsm1EtQfb1Kt709HZSCdvIfKQ22nwdXv6K5vBlunI0+bGdGcoMBcgG6XXzhdlCrVmhtWfznVuGW66AbKUcwkIRat4oR3hTlyYFKvObtm6DWI/JxjZE0uR/Isr8fiLenA38WmcraNPB6yZWg65v5/WP6cBasR+1i93DYtPJ4A3DdDKPhYt03XjCLE2+zVHw34xlR2GswOqK6XaVJ4RHIfRRq2qymh0rlXGjjm3mapCKVz+bJEa5Z5JjV+pl068WMlPI6ZC37kNQftQtFO8TXiGzgyFTbvM+N2sWvUeKibuITdIRNHtOsqi2jSL660oz4uYQjf+o9iNqlQrdVZHaJ1RCpKFm2qF3wXAcjsArVj9ajhqypvklkKGon8PpClT78s1+lTxHq3ly7kFFJ5HPhcC3oJCKDZwNBrh1TiEb+ZKSH1mkNRtSZiIGwXM4QZGgiXZ39HXXtYnx70P4YLmWcu9cossxIEPYBUAUI+wBoMhD2AWABzEgAWACGBIAFYEgAWACGBEDdEP0fci/31DtC+ewAAAAASUVORK5CYII=;" parent="1" vertex="1">
          <mxGeometry x="235" y="60" width="210" height="145" as="geometry" />
        </mxCell>
        <mxCell id="lREojvBChQipQjGddZCE-11" value="" style="rounded=0;whiteSpace=wrap;html=1;" parent="1" vertex="1">
          <mxGeometry x="44" y="610" width="190" height="170" as="geometry" />
        </mxCell>
        <mxCell id="lREojvBChQipQjGddZCE-13" value="" style="curved=1;endArrow=classic;html=1;rounded=0;exitX=0;exitY=0.75;exitDx=0;exitDy=0;entryX=0;entryY=0;entryDx=0;entryDy=0;" parent="1" source="lREojvBChQipQjGddZCE-3" target="lREojvBChQipQjGddZCE-11" edge="1">
          <mxGeometry width="50" height="50" relative="1" as="geometry">
            <mxPoint x="460" y="450" as="sourcePoint" />
            <mxPoint x="510" y="400" as="targetPoint" />
            <Array as="points">
              <mxPoint x="20" y="180" />
              <mxPoint x="10" y="390" />
              <mxPoint x="10" y="510" />
            </Array>
          </mxGeometry>
        </mxCell>
        <mxCell id="lREojvBChQipQjGddZCE-14" value="&lt;h1 style=&quot;margin-top: 0px;&quot;&gt;Menu&lt;/h1&gt;" style="text;html=1;whiteSpace=wrap;overflow=hidden;rounded=0;" parent="1" vertex="1">
          <mxGeometry x="44" y="610" width="110" height="40" as="geometry" />
        </mxCell>
        <mxCell id="lREojvBChQipQjGddZCE-15" value="&lt;div style=&quot;text-align: left;&quot;&gt;&lt;span style=&quot;background-color: initial;&quot;&gt;offset:&lt;/span&gt;&lt;span style=&quot;background-color: initial; white-space: pre;&quot;&gt;&#x9;&lt;/span&gt;&lt;span style=&quot;background-color: initial; white-space: pre;&quot;&gt;&#x9;&lt;/span&gt;&lt;span style=&quot;background-color: rgb(255, 255, 0);&quot;&gt;tmp&lt;/span&gt;&lt;br&gt;&lt;/div&gt;&lt;div style=&quot;text-align: left;&quot;&gt;clock:&amp;nbsp;&lt;span style=&quot;white-space: pre;&quot;&gt;&#x9;&lt;/span&gt;&lt;span style=&quot;white-space: pre;&quot;&gt;&#x9;&lt;/span&gt;&lt;span style=&quot;background-color: rgb(255, 255, 0);&quot;&gt;hour&lt;/span&gt;&lt;/div&gt;&lt;div style=&quot;text-align: left;&quot;&gt;&lt;span style=&quot;white-space: pre;&quot;&gt;&lt;span style=&quot;background-color: initial; white-space: pre;&quot;&gt;&#x9;&lt;/span&gt;&lt;span style=&quot;background-color: initial; white-space: pre;&quot;&gt;&#x9;&lt;/span&gt;&lt;span style=&quot;background-color: initial; white-space: pre;&quot;&gt;&#x9;&lt;/span&gt;&lt;span style=&quot;background-color: rgb(255, 255, 0);&quot;&gt;min&lt;/span&gt;&lt;/span&gt;&lt;/div&gt;&lt;div style=&quot;text-align: left;&quot;&gt;wifi:&lt;span style=&quot;white-space: pre;&quot;&gt;&#x9;&lt;/span&gt;&lt;span style=&quot;white-space: pre;&quot;&gt;&#x9;&lt;/span&gt;&lt;span style=&quot;white-space: pre;&quot;&gt;&#x9;&lt;/span&gt;&lt;span style=&quot;background-color: rgb(255, 255, 102);&quot;&gt;username&lt;/span&gt;&lt;/div&gt;&lt;div style=&quot;text-align: left;&quot;&gt;&lt;span style=&quot;white-space: pre;&quot;&gt;&#x9;&lt;/span&gt;&lt;span style=&quot;white-space: pre;&quot;&gt;&#x9;&lt;/span&gt;&lt;span style=&quot;white-space: pre;&quot;&gt;&#x9;&lt;/span&gt;&lt;span style=&quot;background-color: rgb(255, 255, 0);&quot;&gt;pw&lt;/span&gt;&lt;br&gt;&lt;/div&gt;&lt;div style=&quot;text-align: left;&quot;&gt;&lt;span style=&quot;white-space: pre;&quot;&gt;&#x9;&lt;/span&gt;&lt;span style=&quot;white-space: pre;&quot;&gt;&#x9;&lt;/span&gt;&lt;span style=&quot;white-space: pre;&quot;&gt;&#x9;&lt;/span&gt;&lt;span style=&quot;background-color: rgb(255, 255, 51);&quot;&gt;ip&lt;/span&gt;&lt;br&gt;&lt;/div&gt;&lt;div style=&quot;text-align: left;&quot;&gt;&lt;span style=&quot;white-space: pre;&quot;&gt;&#x9;&lt;/span&gt;&lt;span style=&quot;white-space: pre;&quot;&gt;&#x9;&lt;/span&gt;&lt;span style=&quot;white-space: pre;&quot;&gt;&#x9;&lt;/span&gt;&lt;span style=&quot;background-color: rgb(255, 255, 0);&quot;&gt;host&lt;/span&gt;&lt;br&gt;&lt;/div&gt;&lt;div style=&quot;text-align: left;&quot;&gt;&lt;span style=&quot;background-color: rgb(255, 255, 255);&quot;&gt;&lt;span style=&quot;white-space: pre;&quot;&gt;&#x9;&lt;/span&gt;&lt;span style=&quot;white-space: pre;&quot;&gt;&#x9;&lt;/span&gt;&lt;span style=&quot;white-space: pre;&quot;&gt;&#x9;&lt;/span&gt;&lt;/span&gt;&lt;span style=&quot;background-color: rgb(255, 255, 0);&quot;&gt;Enable/Disable&lt;/span&gt;&lt;br&gt;&lt;/div&gt;" style="text;html=1;align=center;verticalAlign=middle;whiteSpace=wrap;rounded=0;" parent="1" vertex="1">
          <mxGeometry x="54" y="650" width="170" height="120" as="geometry" />
        </mxCell>
        <mxCell id="lREojvBChQipQjGddZCE-17" value="" style="curved=1;endArrow=classic;html=1;rounded=0;strokeWidth=4;strokeColor=default;entryX=-0.015;entryY=0.207;entryDx=0;entryDy=0;entryPerimeter=0;" parent="1" target="lREojvBChQipQjGddZCE-34" edge="1">
          <mxGeometry width="50" height="50" relative="1" as="geometry">
            <mxPoint x="197" y="730" as="sourcePoint" />
            <mxPoint x="330" y="670" as="targetPoint" />
            <Array as="points">
              <mxPoint x="247" y="730" />
              <mxPoint x="197" y="680" />
            </Array>
          </mxGeometry>
        </mxCell>
        <mxCell id="lREojvBChQipQjGddZCE-16" value="" style="curved=1;endArrow=classic;html=1;rounded=0;strokeWidth=2;strokeColor=#FFFF33;" parent="1" edge="1">
          <mxGeometry width="50" height="50" relative="1" as="geometry">
            <mxPoint x="197" y="730" as="sourcePoint" />
            <mxPoint x="330" y="670" as="targetPoint" />
            <Array as="points">
              <mxPoint x="247" y="730" />
              <mxPoint x="197" y="680" />
            </Array>
          </mxGeometry>
        </mxCell>
        <mxCell id="lREojvBChQipQjGddZCE-19" value="cím intben:&lt;div&gt;&lt;span style=&quot;white-space: pre;&quot;&gt;&lt;span style=&quot;white-space: pre;&quot;&gt;&#x9;&lt;/span&gt;&lt;span style=&quot;background-color: rgb(51, 255, 51);&quot;&gt;961&lt;/span&gt;-968&lt;/span&gt;&lt;/div&gt;&lt;div&gt;&lt;span style=&quot;white-space: pre;&quot;&gt;&lt;span style=&quot;white-space: pre;&quot;&gt;&#x9;&lt;/span&gt;&lt;span style=&quot;background-color: rgb(51, 255, 51);&quot;&gt;969&lt;/span&gt;-976&lt;/span&gt;&lt;/div&gt;&lt;div&gt;&lt;span style=&quot;white-space: pre;&quot;&gt;&lt;span style=&quot;white-space: pre;&quot;&gt;&#x9;&lt;/span&gt;&lt;span style=&quot;background-color: rgb(51, 255, 51);&quot;&gt;977&lt;/span&gt;-993&lt;/span&gt;&lt;/div&gt;&lt;div&gt;&lt;span style=&quot;white-space: pre;&quot;&gt;&lt;span style=&quot;white-space: pre;&quot;&gt;&#x9;&lt;/span&gt;&lt;span style=&quot;background-color: rgb(51, 255, 51);&quot;&gt;993&lt;/span&gt;-996&lt;/span&gt;&lt;/div&gt;&lt;div&gt;&lt;span style=&quot;white-space: pre;&quot;&gt;&lt;span style=&quot;white-space: pre;&quot;&gt;&#x9;&lt;/span&gt;&lt;span style=&quot;background-color: rgb(51, 255, 51);&quot;&gt;997&lt;/span&gt;&lt;br&gt;&lt;/span&gt;&lt;/div&gt;&lt;div&gt;&lt;br&gt;&lt;/div&gt;&lt;div&gt;&lt;span style=&quot;white-space: pre;&quot;&gt;&#x9;&lt;/span&gt;&lt;span style=&quot;background-color: rgb(51, 255, 51);&quot;&gt;998&lt;/span&gt;-1001&amp;nbsp;&lt;/div&gt;&lt;div&gt;&lt;span style=&quot;white-space: pre; background-color: rgb(255, 255, 255);&quot;&gt;&#x9;&lt;/span&gt;&lt;span style=&quot;background-color: rgb(51, 255, 51);&quot;&gt;1002&lt;/span&gt;-1005&lt;/div&gt;&lt;div&gt;&lt;br&gt;&lt;/div&gt;&lt;div&gt;&lt;span style=&quot;white-space: pre;&quot;&gt;&#x9;&lt;/span&gt;&lt;span style=&quot;background-color: rgb(51, 255, 51);&quot;&gt;1006&lt;/span&gt;-1009&lt;/div&gt;&lt;div&gt;&lt;span style=&quot;white-space: pre;&quot;&gt;&#x9;&lt;/span&gt;&lt;span style=&quot;background-color: rgb(51, 255, 51);&quot;&gt;1010&lt;/span&gt;-1013&lt;br&gt;&lt;/div&gt;&lt;div&gt;&lt;br&gt;&lt;/div&gt;&lt;div&gt;&lt;div&gt;1.&lt;span style=&quot;white-space: pre;&quot;&gt;&#x9;&lt;/span&gt;&lt;span style=&quot;background-color: rgb(51, 255, 255);&quot;&gt;0&lt;/span&gt; &lt;span style=&quot;background-color: rgb(51, 255, 51);&quot;&gt;8 16 24 32 40 48 56 64 72 80 88 96 104 112 120 128 136 144 152 160 168 176 184&lt;/span&gt;&lt;/div&gt;&lt;div&gt;&lt;span style=&quot;background-color: initial;&quot;&gt;&lt;br&gt;&lt;/span&gt;&lt;/div&gt;&lt;div&gt;2.&lt;span style=&quot;white-space: pre;&quot;&gt;&#x9;&lt;/span&gt;&lt;span style=&quot;background-color: rgb(51, 255, 255);&quot;&gt;192&lt;/span&gt;&lt;span style=&quot;background-color: rgb(255, 255, 255);&quot;&gt; &lt;/span&gt;&lt;span style=&quot;background-color: rgb(51, 255, 51);&quot;&gt;200 208 216 224 232 240 248 256 264 272 280 288 296 304 312 320 328 336 344 352 360 368 376&lt;/span&gt;&lt;/div&gt;&lt;div&gt;&lt;br&gt;&lt;/div&gt;&lt;div&gt;3.&lt;span style=&quot;white-space: pre;&quot;&gt;&#x9;&lt;/span&gt;&lt;span style=&quot;background-color: rgb(51, 255, 255);&quot;&gt;384&lt;/span&gt;&lt;span style=&quot;background-color: rgb(255, 255, 255);&quot;&gt; &lt;/span&gt;&lt;span style=&quot;background-color: rgb(51, 255, 51);&quot;&gt;392 400 408 416 424 432 440 448 456 464 472 480 488 496 504 512 520 528 536 544 552 560 568&lt;/span&gt;&lt;/div&gt;&lt;div&gt;&lt;br&gt;&lt;/div&gt;&lt;div&gt;4.&lt;span style=&quot;white-space: pre;&quot;&gt;&#x9;&lt;/span&gt;&lt;span style=&quot;background-color: rgb(51, 255, 255);&quot;&gt;576&lt;/span&gt;&lt;span style=&quot;background-color: rgb(255, 255, 255);&quot;&gt; &lt;/span&gt;&lt;span style=&quot;background-color: rgb(51, 255, 51);&quot;&gt;584 592 600 608 616 624 632 640 648 656 664 672 680 688 696 704 712 720 728 736 744 752 760&lt;/span&gt;&lt;/div&gt;&lt;div&gt;&lt;br&gt;&lt;/div&gt;&lt;div&gt;5.&lt;span style=&quot;white-space: pre;&quot;&gt;&#x9;&lt;/span&gt;&lt;span style=&quot;background-color: rgb(51, 255, 255);&quot;&gt;768&lt;/span&gt;&lt;span style=&quot;background-color: rgb(255, 255, 255);&quot;&gt; &lt;/span&gt;&lt;span style=&quot;background-color: rgb(51, 255, 51);&quot;&gt;776 784 792 800 808 816 824 832 840 848 856 864 872 880 888 896 904 912 920 928 936 944 952&lt;/span&gt;&lt;/div&gt;&lt;/div&gt;" style="text;html=1;align=left;verticalAlign=middle;whiteSpace=wrap;rounded=0;" parent="1" vertex="1">
          <mxGeometry x="182" y="299" width="590" height="272" as="geometry" />
        </mxCell>
        <mxCell id="lREojvBChQipQjGddZCE-26" value="" style="rounded=0;whiteSpace=wrap;html=1;dashed=1;" parent="1" vertex="1">
          <mxGeometry x="464" y="315" width="130" height="60" as="geometry" />
        </mxCell>
        <mxCell id="lREojvBChQipQjGddZCE-20" value="&lt;font style=&quot;font-size: 14px;&quot;&gt;&lt;b&gt;Just in&lt;/b&gt;&lt;/font&gt;&amp;nbsp;&lt;font style=&quot;font-size: 14px;&quot;&gt;&lt;b&gt;ESPTouch&lt;/b&gt;&lt;/font&gt;" style="text;html=1;align=center;verticalAlign=middle;whiteSpace=wrap;rounded=0;perimeterSpacing=0;dashed=1;" parent="1" vertex="1">
          <mxGeometry x="464" y="299" width="130" height="60" as="geometry" />
        </mxCell>
        <mxCell id="lREojvBChQipQjGddZCE-23" value="" style="curved=1;endArrow=classic;html=1;rounded=0;exitX=0;exitY=1;exitDx=0;exitDy=0;strokeColor=#FF9933;strokeWidth=2;" parent="1" source="lREojvBChQipQjGddZCE-26" edge="1">
          <mxGeometry width="50" height="50" relative="1" as="geometry">
            <mxPoint x="344" y="365" as="sourcePoint" />
            <mxPoint x="274" y="385" as="targetPoint" />
            <Array as="points">
              <mxPoint x="354" y="375" />
            </Array>
          </mxGeometry>
        </mxCell>
        <mxCell id="lREojvBChQipQjGddZCE-25" value="" style="curved=1;endArrow=classic;html=1;rounded=0;exitX=0;exitY=1;exitDx=0;exitDy=0;strokeWidth=2;strokeColor=#FF9933;" parent="1" source="lREojvBChQipQjGddZCE-26" edge="1">
          <mxGeometry width="50" height="50" relative="1" as="geometry">
            <mxPoint x="551" y="410" as="sourcePoint" />
            <mxPoint x="331" y="455" as="targetPoint" />
            <Array as="points">
              <mxPoint x="424" y="395" />
              <mxPoint x="374" y="425" />
            </Array>
          </mxGeometry>
        </mxCell>
        <mxCell id="lREojvBChQipQjGddZCE-27" value="&lt;b style=&quot;font-size: 14px;&quot;&gt;memory size:&amp;nbsp;&lt;/b&gt;&lt;div&gt;&lt;b style=&quot;font-size: 14px;&quot;&gt;&lt;span style=&quot;background-color: rgb(255, 255, 51);&quot;&gt;1024 bytes&lt;/span&gt;&lt;/b&gt;&lt;/div&gt;" style="text;html=1;align=center;verticalAlign=middle;whiteSpace=wrap;rounded=0;" parent="1" vertex="1">
          <mxGeometry x="476" y="335" width="106" height="40" as="geometry" />
        </mxCell>
        <mxCell id="lREojvBChQipQjGddZCE-28" value="" style="rounded=0;whiteSpace=wrap;html=1;" parent="1" vertex="1">
          <mxGeometry x="334" y="900" width="206" height="130" as="geometry" />
        </mxCell>
        <mxCell id="lREojvBChQipQjGddZCE-29" value="&lt;h1 style=&quot;margin-top: 0px;&quot;&gt;Auto save&lt;/h1&gt;" style="text;html=1;whiteSpace=wrap;overflow=hidden;rounded=0;" parent="1" vertex="1">
          <mxGeometry x="344" y="900" width="140" height="40" as="geometry" />
        </mxCell>
        <mxCell id="lREojvBChQipQjGddZCE-30" value="Active program index&lt;div&gt;Programs&lt;/div&gt;&lt;div&gt;hour+min&lt;/div&gt;" style="text;html=1;align=left;verticalAlign=middle;whiteSpace=wrap;rounded=0;" parent="1" vertex="1">
          <mxGeometry x="372" y="930" width="130" height="90" as="geometry" />
        </mxCell>
        <mxCell id="lREojvBChQipQjGddZCE-33" value="" style="curved=1;endArrow=classic;html=1;rounded=0;strokeWidth=2;strokeColor=#FF9933;" parent="1" edge="1">
          <mxGeometry width="50" height="50" relative="1" as="geometry">
            <mxPoint x="464" y="375" as="sourcePoint" />
            <mxPoint x="279" y="425" as="targetPoint" />
            <Array as="points">
              <mxPoint x="359" y="395" />
            </Array>
          </mxGeometry>
        </mxCell>
        <mxCell id="lREojvBChQipQjGddZCE-34" value="" style="rounded=0;whiteSpace=wrap;html=1;" parent="1" vertex="1">
          <mxGeometry x="334" y="610" width="206" height="290" as="geometry" />
        </mxCell>
        <mxCell id="lREojvBChQipQjGddZCE-35" value="&lt;h1 style=&quot;margin-top: 0px;&quot;&gt;ESPTOUCH&lt;/h1&gt;" style="text;html=1;whiteSpace=wrap;overflow=hidden;rounded=0;" parent="1" vertex="1">
          <mxGeometry x="334" y="610" width="140" height="40" as="geometry" />
        </mxCell>
        <mxCell id="lREojvBChQipQjGddZCE-36" value="&lt;div&gt;settings x y (z)&lt;/div&gt;&lt;div&gt;hardreset&lt;/div&gt;&lt;div&gt;help&lt;/div&gt;&lt;div&gt;read&lt;/div&gt;&lt;div&gt;&lt;span style=&quot;background-color: rgb(255, 255, 255);&quot;&gt;quit&lt;/span&gt;&lt;/div&gt;&lt;div&gt;&lt;span style=&quot;background-color: rgb(51, 255, 51);&quot;&gt;x&lt;/span&gt;:&amp;nbsp;&lt;/div&gt;&lt;div&gt;&lt;span style=&quot;white-space: pre;&quot;&gt;&#x9;&lt;/span&gt;-temp&lt;/div&gt;&lt;div&gt;&lt;span style=&quot;white-space: pre;&quot;&gt;&#x9;&lt;/span&gt;-clock&lt;/div&gt;&lt;div&gt;&lt;span style=&quot;white-space: pre;&quot;&gt;&#x9;&lt;/span&gt;-wifi (&lt;span style=&quot;background-color: rgb(51, 255, 51);&quot;&gt;y&lt;/span&gt;):&lt;/div&gt;&lt;div&gt;&lt;span style=&quot;white-space: pre;&quot;&gt;&#x9;&lt;span style=&quot;white-space: pre;&quot;&gt;&#x9;&lt;/span&gt;&lt;/span&gt;- ip&lt;br&gt;&lt;/div&gt;&lt;div&gt;&lt;span style=&quot;white-space: pre;&quot;&gt;&#x9;&lt;/span&gt;&lt;span style=&quot;white-space: pre;&quot;&gt;&#x9;&lt;/span&gt;- host&lt;br&gt;&lt;/div&gt;&lt;div&gt;&lt;span style=&quot;white-space: pre;&quot;&gt;&#x9;&lt;/span&gt;&lt;span style=&quot;white-space: pre;&quot;&gt;&#x9;&lt;/span&gt;- pass&lt;br&gt;&lt;/div&gt;&lt;div&gt;&lt;span style=&quot;white-space: pre;&quot;&gt;&#x9;&lt;/span&gt;&lt;span style=&quot;white-space: pre;&quot;&gt;&#x9;&lt;/span&gt;- user&lt;br&gt;&lt;/div&gt;&lt;div&gt;&lt;span style=&quot;white-space: pre;&quot;&gt;&#x9;&lt;/span&gt;&lt;span style=&quot;white-space: pre;&quot;&gt;&#x9;&lt;/span&gt;- enable/Disable&lt;br&gt;&lt;/div&gt;&lt;div&gt;&lt;span style=&quot;background-color: rgb(51, 255, 51);&quot;&gt;z&lt;/span&gt;:&lt;span style=&quot;white-space: pre;&quot;&gt;&#x9;&lt;/span&gt;data&lt;/div&gt;" style="text;html=1;align=left;verticalAlign=middle;whiteSpace=wrap;rounded=0;" parent="1" vertex="1">
          <mxGeometry x="344" y="631" width="180" height="260" as="geometry" />
        </mxCell>
        <mxCell id="VS3UfX_riqR95znxS2HG-1" value="" style="rounded=0;whiteSpace=wrap;html=1;" vertex="1" parent="1">
          <mxGeometry x="560" y="610" width="210" height="290" as="geometry" />
        </mxCell>
        <mxCell id="VS3UfX_riqR95znxS2HG-2" value="&lt;h1 style=&quot;margin-top: 0px;&quot;&gt;ESPCARRYABLE&lt;/h1&gt;" style="text;html=1;whiteSpace=wrap;overflow=hidden;rounded=0;" vertex="1" parent="1">
          <mxGeometry x="560" y="610" width="200" height="40" as="geometry" />
        </mxCell>
        <mxCell id="VS3UfX_riqR95znxS2HG-4" value="Not needed" style="rounded=0;whiteSpace=wrap;html=1;" vertex="1" parent="1">
          <mxGeometry x="560" y="900" width="210" height="130" as="geometry" />
        </mxCell>
        <mxCell id="VS3UfX_riqR95znxS2HG-5" value="&lt;h1 style=&quot;margin-top: 0px;&quot;&gt;Auto save&lt;/h1&gt;" style="text;html=1;whiteSpace=wrap;overflow=hidden;rounded=0;" vertex="1" parent="1">
          <mxGeometry x="570" y="900" width="140" height="40" as="geometry" />
        </mxCell>
        <mxCell id="VS3UfX_riqR95znxS2HG-7" value="&lt;div&gt;settings x y (z)&lt;/div&gt;&lt;div&gt;hardreset&lt;/div&gt;&lt;div&gt;help&lt;/div&gt;&lt;div&gt;read&lt;/div&gt;&lt;div&gt;&lt;span style=&quot;background-color: rgb(255, 255, 255);&quot;&gt;quit&lt;/span&gt;&lt;/div&gt;&lt;div&gt;&lt;span style=&quot;background-color: rgb(51, 255, 51);&quot;&gt;x&lt;/span&gt;:&amp;nbsp;&lt;/div&gt;&lt;div&gt;&lt;span style=&quot;white-space: pre;&quot;&gt;&#x9;&lt;/span&gt;-temp&lt;/div&gt;&lt;div&gt;&lt;span style=&quot;white-space: pre;&quot;&gt;&#x9;&lt;/span&gt;-wifi (&lt;span style=&quot;background-color: rgb(51, 255, 51);&quot;&gt;y&lt;/span&gt;):&lt;/div&gt;&lt;div&gt;&lt;span style=&quot;white-space: pre;&quot;&gt;&#x9;&lt;span style=&quot;white-space: pre;&quot;&gt;&#x9;&lt;/span&gt;&lt;/span&gt;- ip&lt;br&gt;&lt;/div&gt;&lt;div&gt;&lt;span style=&quot;white-space: pre;&quot;&gt;&#x9;&lt;/span&gt;&lt;span style=&quot;white-space: pre;&quot;&gt;&#x9;&lt;/span&gt;- host&lt;br&gt;&lt;/div&gt;&lt;div&gt;&lt;span style=&quot;white-space: pre;&quot;&gt;&#x9;&lt;/span&gt;&lt;span style=&quot;white-space: pre;&quot;&gt;&#x9;&lt;/span&gt;- pass&lt;br&gt;&lt;/div&gt;&lt;div&gt;&lt;span style=&quot;white-space: pre;&quot;&gt;&#x9;&lt;/span&gt;&lt;span style=&quot;white-space: pre;&quot;&gt;&#x9;&lt;/span&gt;- user&lt;br&gt;&lt;/div&gt;&lt;div&gt;&lt;span style=&quot;white-space: pre;&quot;&gt;&#x9;&lt;/span&gt;&lt;span style=&quot;white-space: pre;&quot;&gt;&#x9;&lt;/span&gt;- enable/Disable&lt;br&gt;&lt;/div&gt;&lt;div&gt;&lt;span style=&quot;background-color: rgb(51, 255, 51);&quot;&gt;z&lt;/span&gt;:&lt;span style=&quot;white-space: pre;&quot;&gt;&#x9;&lt;/span&gt;data&lt;/div&gt;" style="text;html=1;align=left;verticalAlign=middle;whiteSpace=wrap;rounded=0;" vertex="1" parent="1">
          <mxGeometry x="570" y="624" width="180" height="260" as="geometry" />
        </mxCell>
      </root>
    </mxGraphModel>
  </diagram>
  <diagram id="ezKnrZvIiCHcKN3lVNpW" name="Serial Task">
    <mxGraphModel dx="2261" dy="-333" grid="1" gridSize="10" guides="1" tooltips="1" connect="1" arrows="1" fold="1" page="1" pageScale="1" pageWidth="827" pageHeight="1169" math="0" shadow="0">
      <root>
        <mxCell id="0" />
        <mxCell id="1" parent="0" />
        <mxCell id="QVc-E-DdXQi3sipk-SqR-1" value="" style="shape=flexArrow;endArrow=classic;html=1;rounded=0;fillColor=#FF9933;fillStyle=auto;strokeColor=#FF9933;" parent="1" edge="1">
          <mxGeometry width="50" height="50" relative="1" as="geometry">
            <mxPoint x="-351" y="1545.19" as="sourcePoint" />
            <mxPoint x="-350" y="2560" as="targetPoint" />
          </mxGeometry>
        </mxCell>
        <mxCell id="hwpwOQZjd2uzIbd4yA_j-2" value="" style="rounded=0;whiteSpace=wrap;html=1;dashed=1;dashPattern=8 8;" parent="1" vertex="1">
          <mxGeometry x="-810" y="1180" width="390" height="270" as="geometry" />
        </mxCell>
        <mxCell id="hwpwOQZjd2uzIbd4yA_j-3" value="serial communication" style="rounded=0;whiteSpace=wrap;html=1;" parent="1" vertex="1">
          <mxGeometry x="-770" y="1270" width="130" height="60" as="geometry" />
        </mxCell>
        <mxCell id="hwpwOQZjd2uzIbd4yA_j-4" value="&lt;span style=&quot;background-color: rgb(255, 255, 0);&quot;&gt;EEPROM&lt;/span&gt;" style="shape=cylinder3;whiteSpace=wrap;html=1;boundedLbl=1;backgroundOutline=1;size=15;" parent="1" vertex="1">
          <mxGeometry x="-580" y="1260" width="60" height="80" as="geometry" />
        </mxCell>
        <mxCell id="hwpwOQZjd2uzIbd4yA_j-5" style="edgeStyle=orthogonalEdgeStyle;rounded=0;orthogonalLoop=1;jettySize=auto;html=1;exitX=0.5;exitY=1;exitDx=0;exitDy=0;entryX=0.5;entryY=0;entryDx=0;entryDy=0;" parent="1" source="hwpwOQZjd2uzIbd4yA_j-3" target="hwpwOQZjd2uzIbd4yA_j-3" edge="1">
          <mxGeometry relative="1" as="geometry">
            <Array as="points">
              <mxPoint x="-705" y="1350" />
              <mxPoint x="-460" y="1350" />
              <mxPoint x="-460" y="1230" />
              <mxPoint x="-705" y="1230" />
            </Array>
          </mxGeometry>
        </mxCell>
        <mxCell id="hwpwOQZjd2uzIbd4yA_j-6" value="while string != &quot;quit&quot;" style="text;html=1;align=center;verticalAlign=middle;whiteSpace=wrap;rounded=0;" parent="1" vertex="1">
          <mxGeometry x="-705" y="1200" width="175" height="30" as="geometry" />
        </mxCell>
        <mxCell id="hwpwOQZjd2uzIbd4yA_j-7" value="&lt;h1 style=&quot;margin-top: 0px;&quot;&gt;Serial task&lt;/h1&gt;" style="text;html=1;whiteSpace=wrap;overflow=hidden;rounded=0;" parent="1" vertex="1">
          <mxGeometry x="-550" y="1410" width="180" height="120" as="geometry" />
        </mxCell>
        <mxCell id="hwpwOQZjd2uzIbd4yA_j-8" value="End task" style="rounded=0;whiteSpace=wrap;html=1;" parent="1" vertex="1">
          <mxGeometry x="-770" y="1370" width="130" height="60" as="geometry" />
        </mxCell>
        <mxCell id="B3DWIwTIMvHQkc7ydCQr-1" value="" style="endArrow=classic;startArrow=classic;html=1;rounded=0;entryX=0;entryY=0.5;entryDx=0;entryDy=0;entryPerimeter=0;exitX=1;exitY=0.5;exitDx=0;exitDy=0;" parent="1" edge="1">
          <mxGeometry width="50" height="50" relative="1" as="geometry">
            <mxPoint x="-640" y="1299.5" as="sourcePoint" />
            <mxPoint x="-580" y="1299.5" as="targetPoint" />
          </mxGeometry>
        </mxCell>
        <mxCell id="B3DWIwTIMvHQkc7ydCQr-3" value="Serial input/output" style="ellipse;whiteSpace=wrap;html=1;" parent="1" vertex="1">
          <mxGeometry x="-600" y="1490" width="120" height="50" as="geometry" />
        </mxCell>
        <mxCell id="B3DWIwTIMvHQkc7ydCQr-4" value="MenuHandler" style="ellipse;whiteSpace=wrap;html=1;" parent="1" vertex="1">
          <mxGeometry x="-409" y="1490" width="120" height="50" as="geometry" />
        </mxCell>
        <mxCell id="B3DWIwTIMvHQkc7ydCQr-7" value="" style="endArrow=none;html=1;rounded=0;dashed=1;" parent="1" edge="1" source="LEEZjQWYhqCcAPXR_jvx-5">
          <mxGeometry width="50" height="50" relative="1" as="geometry">
            <mxPoint x="-540" y="2560" as="sourcePoint" />
            <mxPoint x="-541" y="1540" as="targetPoint" />
          </mxGeometry>
        </mxCell>
        <mxCell id="B3DWIwTIMvHQkc7ydCQr-8" value="" style="endArrow=none;html=1;rounded=0;dashed=1;" parent="1" source="B3DWIwTIMvHQkc7ydCQr-31" edge="1">
          <mxGeometry width="50" height="50" relative="1" as="geometry">
            <mxPoint x="-350" y="1913" as="sourcePoint" />
            <mxPoint x="-350" y="1540" as="targetPoint" />
          </mxGeometry>
        </mxCell>
        <mxCell id="B3DWIwTIMvHQkc7ydCQr-9" value="CommandHandler" style="ellipse;whiteSpace=wrap;html=1;" parent="1" vertex="1">
          <mxGeometry x="-210" y="1490" width="120" height="50" as="geometry" />
        </mxCell>
        <mxCell id="B3DWIwTIMvHQkc7ydCQr-10" value="" style="endArrow=none;html=1;rounded=0;dashed=1;" parent="1" source="B3DWIwTIMvHQkc7ydCQr-111" edge="1">
          <mxGeometry width="50" height="50" relative="1" as="geometry">
            <mxPoint x="-150" y="2160" as="sourcePoint" />
            <mxPoint x="-152" y="1540" as="targetPoint" />
          </mxGeometry>
        </mxCell>
        <mxCell id="B3DWIwTIMvHQkc7ydCQr-12" value="Waiting input" style="rounded=0;whiteSpace=wrap;html=1;" parent="1" vertex="1">
          <mxGeometry x="-591.5" y="1620" width="100" height="40" as="geometry" />
        </mxCell>
        <mxCell id="B3DWIwTIMvHQkc7ydCQr-24" style="edgeStyle=orthogonalEdgeStyle;rounded=0;orthogonalLoop=1;jettySize=auto;html=1;exitX=1;exitY=0.5;exitDx=0;exitDy=0;entryX=0;entryY=0.5;entryDx=0;entryDy=0;" parent="1" edge="1">
          <mxGeometry relative="1" as="geometry">
            <mxPoint x="-491.5" y="1679" as="sourcePoint" />
            <mxPoint x="-400.5" y="1679" as="targetPoint" />
          </mxGeometry>
        </mxCell>
        <mxCell id="B3DWIwTIMvHQkc7ydCQr-15" value="split to words" style="rounded=0;whiteSpace=wrap;html=1;" parent="1" vertex="1">
          <mxGeometry x="-591.5" y="1660" width="100" height="40" as="geometry" />
        </mxCell>
        <mxCell id="B3DWIwTIMvHQkc7ydCQr-26" style="edgeStyle=orthogonalEdgeStyle;rounded=0;orthogonalLoop=1;jettySize=auto;html=1;exitX=1;exitY=0.5;exitDx=0;exitDy=0;" parent="1" source="B3DWIwTIMvHQkc7ydCQr-23" target="B3DWIwTIMvHQkc7ydCQr-25" edge="1">
          <mxGeometry relative="1" as="geometry" />
        </mxCell>
        <mxCell id="UbuDSsCWZ6GUP8mgn40k-1" style="edgeStyle=orthogonalEdgeStyle;rounded=0;orthogonalLoop=1;jettySize=auto;html=1;exitX=0.75;exitY=1;exitDx=0;exitDy=0;entryX=0.75;entryY=0;entryDx=0;entryDy=0;" parent="1" source="B3DWIwTIMvHQkc7ydCQr-23" target="B3DWIwTIMvHQkc7ydCQr-31" edge="1">
          <mxGeometry relative="1" as="geometry" />
        </mxCell>
        <mxCell id="B3DWIwTIMvHQkc7ydCQr-23" value="Main menu" style="rounded=0;whiteSpace=wrap;html=1;" parent="1" vertex="1">
          <mxGeometry x="-400" y="1660" width="100" height="40" as="geometry" />
        </mxCell>
        <mxCell id="B3DWIwTIMvHQkc7ydCQr-25" value="seach command" style="rounded=0;whiteSpace=wrap;html=1;" parent="1" vertex="1">
          <mxGeometry x="-199" y="1660" width="100" height="40" as="geometry" />
        </mxCell>
        <mxCell id="B3DWIwTIMvHQkc7ydCQr-27" value="send params" style="text;html=1;align=center;verticalAlign=middle;resizable=0;points=[];autosize=1;strokeColor=none;fillColor=none;" parent="1" vertex="1">
          <mxGeometry x="-488" y="1640" width="90" height="30" as="geometry" />
        </mxCell>
        <mxCell id="B3DWIwTIMvHQkc7ydCQr-28" value="" style="curved=1;endArrow=classic;html=1;rounded=0;entryX=0.75;entryY=1;entryDx=0;entryDy=0;" parent="1" target="B3DWIwTIMvHQkc7ydCQr-23" edge="1">
          <mxGeometry width="50" height="50" relative="1" as="geometry">
            <mxPoint x="-98" y="1678" as="sourcePoint" />
            <mxPoint x="-299" y="1740" as="targetPoint" />
            <Array as="points">
              <mxPoint x="-68" y="1710" />
              <mxPoint x="-108" y="1740" />
            </Array>
          </mxGeometry>
        </mxCell>
        <mxCell id="B3DWIwTIMvHQkc7ydCQr-37" style="edgeStyle=orthogonalEdgeStyle;rounded=0;orthogonalLoop=1;jettySize=auto;html=1;exitX=1;exitY=0.5;exitDx=0;exitDy=0;entryX=0;entryY=0.5;entryDx=0;entryDy=0;" parent="1" source="B3DWIwTIMvHQkc7ydCQr-31" target="B3DWIwTIMvHQkc7ydCQr-36" edge="1">
          <mxGeometry relative="1" as="geometry">
            <Array as="points">
              <mxPoint x="-299" y="1740" />
              <mxPoint x="-310" y="1740" />
              <mxPoint x="-310" y="1755" />
              <mxPoint x="-240" y="1755" />
              <mxPoint x="-240" y="1790" />
            </Array>
          </mxGeometry>
        </mxCell>
        <mxCell id="B3DWIwTIMvHQkc7ydCQr-87" style="edgeStyle=orthogonalEdgeStyle;rounded=0;orthogonalLoop=1;jettySize=auto;html=1;entryX=1;entryY=0.5;entryDx=0;entryDy=0;" parent="1" source="B3DWIwTIMvHQkc7ydCQr-31" target="B3DWIwTIMvHQkc7ydCQr-86" edge="1">
          <mxGeometry relative="1" as="geometry" />
        </mxCell>
        <mxCell id="B3DWIwTIMvHQkc7ydCQr-33" value="string" style="text;html=1;align=center;verticalAlign=middle;resizable=0;points=[];autosize=1;strokeColor=none;fillColor=none;" parent="1" vertex="1">
          <mxGeometry x="-289" y="1760" width="50" height="30" as="geometry" />
        </mxCell>
        <mxCell id="B3DWIwTIMvHQkc7ydCQr-34" value="string" style="text;html=1;align=center;verticalAlign=middle;resizable=0;points=[];autosize=1;strokeColor=none;fillColor=none;" parent="1" vertex="1">
          <mxGeometry x="-274" y="1650" width="50" height="30" as="geometry" />
        </mxCell>
        <mxCell id="B3DWIwTIMvHQkc7ydCQr-36" value="seach command" style="rounded=0;whiteSpace=wrap;html=1;" parent="1" vertex="1">
          <mxGeometry x="-199" y="1770" width="100" height="40" as="geometry" />
        </mxCell>
        <mxCell id="B3DWIwTIMvHQkc7ydCQr-52" value="check data" style="rounded=0;whiteSpace=wrap;html=1;" parent="1" vertex="1">
          <mxGeometry x="-591" y="2099" width="100" height="40" as="geometry" />
        </mxCell>
        <mxCell id="B3DWIwTIMvHQkc7ydCQr-56" value="" style="endArrow=none;html=1;rounded=0;dashed=1;" parent="1" target="B3DWIwTIMvHQkc7ydCQr-131" edge="1">
          <mxGeometry width="50" height="50" relative="1" as="geometry">
            <mxPoint x="-350" y="2560" as="sourcePoint" />
            <mxPoint x="-350" y="2179" as="targetPoint" />
          </mxGeometry>
        </mxCell>
        <mxCell id="B3DWIwTIMvHQkc7ydCQr-58" value="if correct" style="text;html=1;align=center;verticalAlign=middle;resizable=0;points=[];autosize=1;strokeColor=none;fillColor=none;" parent="1" vertex="1">
          <mxGeometry x="-460" y="2160" width="70" height="30" as="geometry" />
        </mxCell>
        <mxCell id="B3DWIwTIMvHQkc7ydCQr-62" value="waiting input" style="rounded=0;whiteSpace=wrap;html=1;" parent="1" vertex="1">
          <mxGeometry x="-591" y="1989" width="100" height="40" as="geometry" />
        </mxCell>
        <mxCell id="B3DWIwTIMvHQkc7ydCQr-66" value="if not correct" style="text;html=1;align=center;verticalAlign=middle;resizable=0;points=[];autosize=1;strokeColor=none;fillColor=none;" parent="1" vertex="1">
          <mxGeometry x="-681" y="2090" width="90" height="30" as="geometry" />
        </mxCell>
        <mxCell id="B3DWIwTIMvHQkc7ydCQr-81" value="if one param&amp;nbsp;" style="text;html=1;align=center;verticalAlign=middle;resizable=0;points=[];autosize=1;strokeColor=none;fillColor=none;" parent="1" vertex="1">
          <mxGeometry x="-521" y="2069" width="90" height="30" as="geometry" />
        </mxCell>
        <mxCell id="B3DWIwTIMvHQkc7ydCQr-92" style="edgeStyle=orthogonalEdgeStyle;rounded=0;orthogonalLoop=1;jettySize=auto;html=1;exitX=0.75;exitY=1;exitDx=0;exitDy=0;entryX=0;entryY=0.5;entryDx=0;entryDy=0;" parent="1" source="B3DWIwTIMvHQkc7ydCQr-86" target="B3DWIwTIMvHQkc7ydCQr-90" edge="1">
          <mxGeometry relative="1" as="geometry" />
        </mxCell>
        <mxCell id="B3DWIwTIMvHQkc7ydCQr-86" value="waiting input" style="rounded=0;whiteSpace=wrap;html=1;" parent="1" vertex="1">
          <mxGeometry x="-590" y="1735" width="100" height="40" as="geometry" />
        </mxCell>
        <mxCell id="B3DWIwTIMvHQkc7ydCQr-93" style="edgeStyle=orthogonalEdgeStyle;rounded=0;orthogonalLoop=1;jettySize=auto;html=1;exitX=1;exitY=0.5;exitDx=0;exitDy=0;entryX=0.25;entryY=1;entryDx=0;entryDy=0;" parent="1" source="B3DWIwTIMvHQkc7ydCQr-90" target="B3DWIwTIMvHQkc7ydCQr-31" edge="1">
          <mxGeometry relative="1" as="geometry" />
        </mxCell>
        <mxCell id="B3DWIwTIMvHQkc7ydCQr-90" value="split to words" style="rounded=0;whiteSpace=wrap;html=1;" parent="1" vertex="1">
          <mxGeometry x="-590" y="1775" width="100" height="40" as="geometry" />
        </mxCell>
        <mxCell id="B3DWIwTIMvHQkc7ydCQr-96" value="&lt;span style=&quot;text-wrap: nowrap;&quot;&gt;if there are one&amp;nbsp;&lt;/span&gt;&lt;div&gt;&lt;span style=&quot;text-wrap: nowrap;&quot;&gt;more string&lt;/span&gt;&lt;/div&gt;" style="text;html=1;align=center;verticalAlign=middle;whiteSpace=wrap;rounded=0;" parent="1" vertex="1">
          <mxGeometry x="-685" y="2059" width="85" height="40" as="geometry" />
        </mxCell>
        <mxCell id="B3DWIwTIMvHQkc7ydCQr-101" style="edgeStyle=orthogonalEdgeStyle;rounded=0;orthogonalLoop=1;jettySize=auto;html=1;exitX=0.75;exitY=1;exitDx=0;exitDy=0;entryX=0.75;entryY=0;entryDx=0;entryDy=0;" parent="1" source="B3DWIwTIMvHQkc7ydCQr-99" target="B3DWIwTIMvHQkc7ydCQr-52" edge="1">
          <mxGeometry relative="1" as="geometry" />
        </mxCell>
        <mxCell id="B3DWIwTIMvHQkc7ydCQr-99" value="split to words" style="rounded=0;whiteSpace=wrap;html=1;" parent="1" vertex="1">
          <mxGeometry x="-591" y="2029" width="100" height="40" as="geometry" />
        </mxCell>
        <mxCell id="B3DWIwTIMvHQkc7ydCQr-103" value="if input needed" style="text;html=1;align=center;verticalAlign=middle;resizable=0;points=[];autosize=1;strokeColor=none;fillColor=none;" parent="1" vertex="1">
          <mxGeometry x="-494.5" y="1840" width="100" height="30" as="geometry" />
        </mxCell>
        <mxCell id="B3DWIwTIMvHQkc7ydCQr-113" value="string" style="text;html=1;align=center;verticalAlign=middle;resizable=0;points=[];autosize=1;strokeColor=none;fillColor=none;" parent="1" vertex="1">
          <mxGeometry x="-274" y="1890" width="50" height="30" as="geometry" />
        </mxCell>
        <mxCell id="B3DWIwTIMvHQkc7ydCQr-119" style="edgeStyle=orthogonalEdgeStyle;rounded=0;orthogonalLoop=1;jettySize=auto;html=1;entryX=1;entryY=0.5;entryDx=0;entryDy=0;" parent="1" source="B3DWIwTIMvHQkc7ydCQr-120" target="B3DWIwTIMvHQkc7ydCQr-122" edge="1">
          <mxGeometry relative="1" as="geometry" />
        </mxCell>
        <mxCell id="B3DWIwTIMvHQkc7ydCQr-145" style="edgeStyle=orthogonalEdgeStyle;rounded=0;orthogonalLoop=1;jettySize=auto;html=1;exitX=0.75;exitY=1;exitDx=0;exitDy=0;entryX=0;entryY=0.5;entryDx=0;entryDy=0;" parent="1" source="B3DWIwTIMvHQkc7ydCQr-120" target="B3DWIwTIMvHQkc7ydCQr-111" edge="1">
          <mxGeometry relative="1" as="geometry">
            <Array as="points">
              <mxPoint x="-311" y="1900" />
              <mxPoint x="-311" y="1880" />
              <mxPoint x="-230" y="1880" />
              <mxPoint x="-230" y="1920" />
            </Array>
          </mxGeometry>
        </mxCell>
        <mxCell id="B3DWIwTIMvHQkc7ydCQr-121" style="edgeStyle=orthogonalEdgeStyle;rounded=0;orthogonalLoop=1;jettySize=auto;html=1;exitX=0.75;exitY=1;exitDx=0;exitDy=0;entryX=0;entryY=0.5;entryDx=0;entryDy=0;" parent="1" source="B3DWIwTIMvHQkc7ydCQr-122" target="B3DWIwTIMvHQkc7ydCQr-127" edge="1">
          <mxGeometry relative="1" as="geometry" />
        </mxCell>
        <mxCell id="B3DWIwTIMvHQkc7ydCQr-122" value="waiting input" style="rounded=0;whiteSpace=wrap;html=1;" parent="1" vertex="1">
          <mxGeometry x="-591.5" y="1860" width="100" height="40" as="geometry" />
        </mxCell>
        <mxCell id="B3DWIwTIMvHQkc7ydCQr-125" style="edgeStyle=orthogonalEdgeStyle;rounded=0;orthogonalLoop=1;jettySize=auto;html=1;exitX=1;exitY=0.5;exitDx=0;exitDy=0;entryX=0.25;entryY=1;entryDx=0;entryDy=0;" parent="1" source="B3DWIwTIMvHQkc7ydCQr-127" target="B3DWIwTIMvHQkc7ydCQr-120" edge="1">
          <mxGeometry relative="1" as="geometry" />
        </mxCell>
        <mxCell id="B3DWIwTIMvHQkc7ydCQr-127" value="split to words" style="rounded=0;whiteSpace=wrap;html=1;" parent="1" vertex="1">
          <mxGeometry x="-591.5" y="1900" width="100" height="40" as="geometry" />
        </mxCell>
        <mxCell id="B3DWIwTIMvHQkc7ydCQr-128" value="" style="curved=1;endArrow=classic;html=1;rounded=0;exitX=1;exitY=0.5;exitDx=0;exitDy=0;entryX=0.75;entryY=1;entryDx=0;entryDy=0;" parent="1" source="B3DWIwTIMvHQkc7ydCQr-36" target="B3DWIwTIMvHQkc7ydCQr-31" edge="1">
          <mxGeometry width="50" height="50" relative="1" as="geometry">
            <mxPoint x="-98" y="1815" as="sourcePoint" />
            <mxPoint x="-299" y="1877" as="targetPoint" />
            <Array as="points">
              <mxPoint x="-70" y="1820" />
              <mxPoint x="-110" y="1840" />
              <mxPoint x="-250" y="1810" />
            </Array>
          </mxGeometry>
        </mxCell>
        <mxCell id="B3DWIwTIMvHQkc7ydCQr-129" value="" style="endArrow=none;html=1;rounded=0;dashed=1;" parent="1" target="B3DWIwTIMvHQkc7ydCQr-111" edge="1">
          <mxGeometry width="50" height="50" relative="1" as="geometry">
            <mxPoint x="-150" y="2560" as="sourcePoint" />
            <mxPoint x="-152" y="1832" as="targetPoint" />
          </mxGeometry>
        </mxCell>
        <mxCell id="B3DWIwTIMvHQkc7ydCQr-111" value="seach command" style="rounded=0;whiteSpace=wrap;html=1;" parent="1" vertex="1">
          <mxGeometry x="-199" y="1900" width="100" height="40" as="geometry" />
        </mxCell>
        <mxCell id="B3DWIwTIMvHQkc7ydCQr-132" value="" style="endArrow=none;html=1;rounded=0;dashed=1;" parent="1" target="B3DWIwTIMvHQkc7ydCQr-131" edge="1">
          <mxGeometry width="50" height="50" relative="1" as="geometry">
            <mxPoint x="-350" y="2139" as="sourcePoint" />
            <mxPoint x="-351" y="1629" as="targetPoint" />
          </mxGeometry>
        </mxCell>
        <mxCell id="B3DWIwTIMvHQkc7ydCQr-135" style="edgeStyle=orthogonalEdgeStyle;rounded=0;orthogonalLoop=1;jettySize=auto;html=1;exitX=0;exitY=0.5;exitDx=0;exitDy=0;entryX=1;entryY=0.5;entryDx=0;entryDy=0;" parent="1" source="B3DWIwTIMvHQkc7ydCQr-131" target="B3DWIwTIMvHQkc7ydCQr-52" edge="1">
          <mxGeometry relative="1" as="geometry" />
        </mxCell>
        <mxCell id="B3DWIwTIMvHQkc7ydCQr-148" style="edgeStyle=orthogonalEdgeStyle;rounded=0;orthogonalLoop=1;jettySize=auto;html=1;exitX=0;exitY=0.25;exitDx=0;exitDy=0;entryX=1;entryY=0.5;entryDx=0;entryDy=0;" parent="1" source="B3DWIwTIMvHQkc7ydCQr-131" target="B3DWIwTIMvHQkc7ydCQr-62" edge="1">
          <mxGeometry relative="1" as="geometry">
            <Array as="points">
              <mxPoint x="-410" y="2109" />
              <mxPoint x="-410" y="2009" />
            </Array>
          </mxGeometry>
        </mxCell>
        <mxCell id="B3DWIwTIMvHQkc7ydCQr-131" value="function" style="rounded=0;whiteSpace=wrap;html=1;" parent="1" vertex="1">
          <mxGeometry x="-400" y="2099" width="100" height="40" as="geometry" />
        </mxCell>
        <mxCell id="B3DWIwTIMvHQkc7ydCQr-134" value="if command founded" style="text;html=1;align=center;verticalAlign=middle;resizable=0;points=[];autosize=1;strokeColor=none;fillColor=none;" parent="1" vertex="1">
          <mxGeometry x="-329" y="2010" width="130" height="30" as="geometry" />
        </mxCell>
        <mxCell id="B3DWIwTIMvHQkc7ydCQr-137" value="Main" style="ellipse;whiteSpace=wrap;html=1;" parent="1" vertex="1">
          <mxGeometry x="-790" y="1490" width="120" height="50" as="geometry" />
        </mxCell>
        <mxCell id="B3DWIwTIMvHQkc7ydCQr-138" value="" style="endArrow=none;html=1;rounded=0;dashed=1;" parent="1" edge="1">
          <mxGeometry width="50" height="50" relative="1" as="geometry">
            <mxPoint x="-730" y="2560" as="sourcePoint" />
            <mxPoint x="-730.5" y="1540" as="targetPoint" />
          </mxGeometry>
        </mxCell>
        <mxCell id="B3DWIwTIMvHQkc7ydCQr-154" style="edgeStyle=orthogonalEdgeStyle;rounded=0;orthogonalLoop=1;jettySize=auto;html=1;exitX=0.75;exitY=1;exitDx=0;exitDy=0;entryX=0.75;entryY=0;entryDx=0;entryDy=0;" parent="1" source="B3DWIwTIMvHQkc7ydCQr-140" target="B3DWIwTIMvHQkc7ydCQr-153" edge="1">
          <mxGeometry relative="1" as="geometry" />
        </mxCell>
        <mxCell id="B3DWIwTIMvHQkc7ydCQr-140" value="monitoring serial, if&amp;nbsp; the input is &quot;&lt;i&gt;BIOS&lt;/i&gt;&quot;&amp;nbsp;" style="rounded=0;whiteSpace=wrap;html=1;" parent="1" vertex="1">
          <mxGeometry x="-780" y="1570" width="100" height="50" as="geometry" />
        </mxCell>
        <mxCell id="B3DWIwTIMvHQkc7ydCQr-142" value="if input needed" style="text;html=1;align=center;verticalAlign=middle;resizable=0;points=[];autosize=1;strokeColor=none;fillColor=none;" parent="1" vertex="1">
          <mxGeometry x="-470" y="1980" width="100" height="30" as="geometry" />
        </mxCell>
        <mxCell id="B3DWIwTIMvHQkc7ydCQr-143" value="if input needed" style="text;html=1;align=center;verticalAlign=middle;resizable=0;points=[];autosize=1;strokeColor=none;fillColor=none;" parent="1" vertex="1">
          <mxGeometry x="-498" y="1720" width="100" height="30" as="geometry" />
        </mxCell>
        <mxCell id="B3DWIwTIMvHQkc7ydCQr-144" value="" style="endArrow=none;html=1;rounded=0;dashed=1;" parent="1" source="B3DWIwTIMvHQkc7ydCQr-131" target="B3DWIwTIMvHQkc7ydCQr-31" edge="1">
          <mxGeometry width="50" height="50" relative="1" as="geometry">
            <mxPoint x="-349" y="2302" as="sourcePoint" />
            <mxPoint x="-350" y="1540" as="targetPoint" />
          </mxGeometry>
        </mxCell>
        <mxCell id="UbuDSsCWZ6GUP8mgn40k-2" style="edgeStyle=orthogonalEdgeStyle;rounded=0;orthogonalLoop=1;jettySize=auto;html=1;exitX=0.75;exitY=1;exitDx=0;exitDy=0;entryX=0.75;entryY=0;entryDx=0;entryDy=0;" parent="1" source="B3DWIwTIMvHQkc7ydCQr-31" target="B3DWIwTIMvHQkc7ydCQr-120" edge="1">
          <mxGeometry relative="1" as="geometry" />
        </mxCell>
        <mxCell id="B3DWIwTIMvHQkc7ydCQr-31" value="set menu" style="rounded=0;whiteSpace=wrap;html=1;" parent="1" vertex="1">
          <mxGeometry x="-399" y="1735" width="100" height="40" as="geometry" />
        </mxCell>
        <mxCell id="B3DWIwTIMvHQkc7ydCQr-149" value="" style="curved=1;endArrow=classic;html=1;rounded=0;exitX=0.5;exitY=1;exitDx=0;exitDy=0;entryX=0;entryY=0.75;entryDx=0;entryDy=0;" parent="1" source="LEEZjQWYhqCcAPXR_jvx-5" target="B3DWIwTIMvHQkc7ydCQr-12" edge="1">
          <mxGeometry width="50" height="50" relative="1" as="geometry">
            <mxPoint x="-300" y="2159" as="sourcePoint" />
            <mxPoint x="-491" y="2237" as="targetPoint" />
            <Array as="points">
              <mxPoint x="-591" y="2190" />
              <mxPoint x="-740" y="2150" />
              <mxPoint x="-700" y="1980" />
              <mxPoint x="-620" y="1750" />
              <mxPoint x="-630" y="1690" />
            </Array>
          </mxGeometry>
        </mxCell>
        <mxCell id="B3DWIwTIMvHQkc7ydCQr-151" value="" style="curved=1;endArrow=classic;html=1;rounded=0;exitX=1;exitY=0.5;exitDx=0;exitDy=0;entryX=0.75;entryY=1;entryDx=0;entryDy=0;" parent="1" target="B3DWIwTIMvHQkc7ydCQr-120" edge="1">
          <mxGeometry width="50" height="50" relative="1" as="geometry">
            <mxPoint x="-99" y="1920" as="sourcePoint" />
            <mxPoint x="-299" y="2007" as="targetPoint" />
            <Array as="points">
              <mxPoint x="-70" y="1950" />
              <mxPoint x="-108" y="2007" />
            </Array>
          </mxGeometry>
        </mxCell>
        <mxCell id="B3DWIwTIMvHQkc7ydCQr-156" style="edgeStyle=orthogonalEdgeStyle;rounded=0;orthogonalLoop=1;jettySize=auto;html=1;exitX=0.75;exitY=1;exitDx=0;exitDy=0;entryX=0.75;entryY=0;entryDx=0;entryDy=0;" parent="1" source="B3DWIwTIMvHQkc7ydCQr-153" target="B3DWIwTIMvHQkc7ydCQr-155" edge="1">
          <mxGeometry relative="1" as="geometry" />
        </mxCell>
        <mxCell id="B3DWIwTIMvHQkc7ydCQr-153" value="End all task" style="rounded=0;whiteSpace=wrap;html=1;" parent="1" vertex="1">
          <mxGeometry x="-780" y="1660" width="100" height="40" as="geometry" />
        </mxCell>
        <mxCell id="B3DWIwTIMvHQkc7ydCQr-157" style="edgeStyle=orthogonalEdgeStyle;rounded=0;orthogonalLoop=1;jettySize=auto;html=1;exitX=1;exitY=0.5;exitDx=0;exitDy=0;entryX=0;entryY=0.5;entryDx=0;entryDy=0;" parent="1" source="B3DWIwTIMvHQkc7ydCQr-155" target="B3DWIwTIMvHQkc7ydCQr-12" edge="1">
          <mxGeometry relative="1" as="geometry" />
        </mxCell>
        <mxCell id="B3DWIwTIMvHQkc7ydCQr-155" value="Start Serial task" style="rounded=0;whiteSpace=wrap;html=1;" parent="1" vertex="1">
          <mxGeometry x="-780" y="1740" width="100" height="40" as="geometry" />
        </mxCell>
        <mxCell id="UbuDSsCWZ6GUP8mgn40k-3" style="edgeStyle=orthogonalEdgeStyle;rounded=0;orthogonalLoop=1;jettySize=auto;html=1;exitX=0.75;exitY=1;exitDx=0;exitDy=0;entryX=0.75;entryY=0;entryDx=0;entryDy=0;" parent="1" source="B3DWIwTIMvHQkc7ydCQr-120" target="B3DWIwTIMvHQkc7ydCQr-131" edge="1">
          <mxGeometry relative="1" as="geometry" />
        </mxCell>
        <mxCell id="B3DWIwTIMvHQkc7ydCQr-120" value="&amp;nbsp;wifiparam menu" style="rounded=0;whiteSpace=wrap;html=1;" parent="1" vertex="1">
          <mxGeometry x="-399.5" y="1860" width="100" height="40" as="geometry" />
        </mxCell>
        <mxCell id="B3DWIwTIMvHQkc7ydCQr-208" value="OR" style="text;html=1;align=center;verticalAlign=middle;resizable=0;points=[];autosize=1;strokeColor=none;fillColor=none;" parent="1" vertex="1">
          <mxGeometry x="-329" y="1815" width="40" height="30" as="geometry" />
        </mxCell>
        <mxCell id="B3DWIwTIMvHQkc7ydCQr-211" value="send params" style="text;html=1;align=center;verticalAlign=middle;resizable=0;points=[];autosize=1;strokeColor=none;fillColor=none;" parent="1" vertex="1">
          <mxGeometry x="-470" y="1790" width="90" height="30" as="geometry" />
        </mxCell>
        <mxCell id="B3DWIwTIMvHQkc7ydCQr-212" value="send params" style="text;html=1;align=center;verticalAlign=middle;resizable=0;points=[];autosize=1;strokeColor=none;fillColor=none;" parent="1" vertex="1">
          <mxGeometry x="-478" y="1910" width="90" height="30" as="geometry" />
        </mxCell>
        <mxCell id="B3DWIwTIMvHQkc7ydCQr-224" value="waiting input" style="rounded=0;whiteSpace=wrap;html=1;" parent="1" vertex="1">
          <mxGeometry x="-589" y="2280" width="100" height="40" as="geometry" />
        </mxCell>
        <mxCell id="B3DWIwTIMvHQkc7ydCQr-226" style="edgeStyle=orthogonalEdgeStyle;rounded=0;orthogonalLoop=1;jettySize=auto;html=1;entryX=1;entryY=0.5;entryDx=0;entryDy=0;" parent="1" source="B3DWIwTIMvHQkc7ydCQr-225" target="B3DWIwTIMvHQkc7ydCQr-224" edge="1">
          <mxGeometry relative="1" as="geometry" />
        </mxCell>
        <mxCell id="B3DWIwTIMvHQkc7ydCQr-225" value="any function" style="rounded=0;whiteSpace=wrap;html=1;" parent="1" vertex="1">
          <mxGeometry x="-396" y="2280" width="100" height="40" as="geometry" />
        </mxCell>
        <mxCell id="B3DWIwTIMvHQkc7ydCQr-227" value="if input needed" style="text;html=1;align=center;verticalAlign=middle;resizable=0;points=[];autosize=1;strokeColor=none;fillColor=none;" parent="1" vertex="1">
          <mxGeometry x="-490" y="2300" width="100" height="30" as="geometry" />
        </mxCell>
        <mxCell id="B3DWIwTIMvHQkc7ydCQr-243" style="edgeStyle=orthogonalEdgeStyle;rounded=0;orthogonalLoop=1;jettySize=auto;html=1;" parent="1" source="B3DWIwTIMvHQkc7ydCQr-228" edge="1">
          <mxGeometry relative="1" as="geometry">
            <mxPoint x="-720" y="2130" as="targetPoint" />
          </mxGeometry>
        </mxCell>
        <mxCell id="B3DWIwTIMvHQkc7ydCQr-228" value="split to word, and count them" style="rounded=0;whiteSpace=wrap;html=1;" parent="1" vertex="1">
          <mxGeometry x="-589" y="2320" width="100" height="40" as="geometry" />
        </mxCell>
        <mxCell id="B3DWIwTIMvHQkc7ydCQr-236" value="if quit" style="text;html=1;align=center;verticalAlign=middle;resizable=0;points=[];autosize=1;strokeColor=none;fillColor=none;" parent="1" vertex="1">
          <mxGeometry x="-528" y="2390" width="50" height="30" as="geometry" />
        </mxCell>
        <mxCell id="B3DWIwTIMvHQkc7ydCQr-239" style="edgeStyle=orthogonalEdgeStyle;rounded=0;orthogonalLoop=1;jettySize=auto;html=1;exitX=0.75;exitY=1;exitDx=0;exitDy=0;entryX=0.75;entryY=0;entryDx=0;entryDy=0;" parent="1" source="B3DWIwTIMvHQkc7ydCQr-240" target="B3DWIwTIMvHQkc7ydCQr-242" edge="1">
          <mxGeometry relative="1" as="geometry" />
        </mxCell>
        <mxCell id="B3DWIwTIMvHQkc7ydCQr-240" value="End Serial task" style="rounded=0;whiteSpace=wrap;html=1;" parent="1" vertex="1">
          <mxGeometry x="-779.5" y="2372" width="100" height="40" as="geometry" />
        </mxCell>
        <mxCell id="B3DWIwTIMvHQkc7ydCQr-241" value="" style="curved=1;endArrow=classic;html=1;rounded=0;exitX=1;exitY=0.5;exitDx=0;exitDy=0;" parent="1" source="B3DWIwTIMvHQkc7ydCQr-238" edge="1">
          <mxGeometry width="50" height="50" relative="1" as="geometry">
            <mxPoint x="-488.5" y="2312" as="sourcePoint" />
            <mxPoint x="-679.5" y="2390" as="targetPoint" />
            <Array as="points">
              <mxPoint x="-450.5" y="2362" />
              <mxPoint x="-529.5" y="2402" />
            </Array>
          </mxGeometry>
        </mxCell>
        <mxCell id="B3DWIwTIMvHQkc7ydCQr-242" value="reset &lt;i&gt;MCU&lt;/i&gt;" style="rounded=0;whiteSpace=wrap;html=1;" parent="1" vertex="1">
          <mxGeometry x="-779.5" y="2442" width="100" height="40" as="geometry" />
        </mxCell>
        <mxCell id="B3DWIwTIMvHQkc7ydCQr-245" value="if cancel" style="text;html=1;align=center;verticalAlign=middle;resizable=0;points=[];autosize=1;strokeColor=none;fillColor=none;" parent="1" vertex="1">
          <mxGeometry x="-691" y="2308" width="70" height="30" as="geometry" />
        </mxCell>
        <mxCell id="B3DWIwTIMvHQkc7ydCQr-248" value="print element" style="rounded=0;whiteSpace=wrap;html=1;" parent="1" vertex="1">
          <mxGeometry x="-400" y="2432" width="100" height="40" as="geometry" />
        </mxCell>
        <mxCell id="B3DWIwTIMvHQkc7ydCQr-251" value="" style="curved=1;endArrow=classic;html=1;rounded=0;exitX=0;exitY=0.5;exitDx=0;exitDy=0;entryX=0.373;entryY=-0.122;entryDx=0;entryDy=0;entryPerimeter=0;" parent="1" source="B3DWIwTIMvHQkc7ydCQr-248" target="B3DWIwTIMvHQkc7ydCQr-252" edge="1">
          <mxGeometry width="50" height="50" relative="1" as="geometry">
            <mxPoint x="-570" y="2180" as="sourcePoint" />
            <mxPoint x="-300" y="2250" as="targetPoint" />
            <Array as="points">
              <mxPoint x="-460" y="2450" />
              <mxPoint x="-480" y="2470" />
            </Array>
          </mxGeometry>
        </mxCell>
        <mxCell id="B3DWIwTIMvHQkc7ydCQr-252" value="return to last the latest menu" style="text;html=1;align=center;verticalAlign=middle;resizable=0;points=[];autosize=1;strokeColor=none;fillColor=none;" parent="1" vertex="1">
          <mxGeometry x="-532.5" y="2510" width="180" height="30" as="geometry" />
        </mxCell>
        <mxCell id="mJlrK5PCwZRSPFI1B7Ar-1" value="&amp;nbsp;" style="text;html=1;align=center;verticalAlign=middle;resizable=0;points=[];autosize=1;strokeColor=none;fillColor=none;" parent="1" vertex="1">
          <mxGeometry x="-545" y="2618" width="30" height="30" as="geometry" />
        </mxCell>
        <mxCell id="UbuDSsCWZ6GUP8mgn40k-4" value="" style="endArrow=classic;html=1;rounded=0;entryX=1;entryY=0.5;entryDx=0;entryDy=0;" parent="1" target="B3DWIwTIMvHQkc7ydCQr-131" edge="1">
          <mxGeometry width="50" height="50" relative="1" as="geometry">
            <mxPoint x="-324" y="1838" as="sourcePoint" />
            <mxPoint x="-30" y="2110" as="targetPoint" />
            <Array as="points">
              <mxPoint x="-30" y="1840" />
              <mxPoint x="-30" y="2120" />
            </Array>
          </mxGeometry>
        </mxCell>
        <mxCell id="UbuDSsCWZ6GUP8mgn40k-5" value="" style="endArrow=classic;html=1;rounded=0;entryX=1;entryY=0.5;entryDx=0;entryDy=0;" parent="1" edge="1">
          <mxGeometry width="50" height="50" relative="1" as="geometry">
            <mxPoint x="-30" y="2120" as="sourcePoint" />
            <mxPoint x="-300" y="2451" as="targetPoint" />
            <Array as="points">
              <mxPoint x="-30" y="2172" />
              <mxPoint x="-30" y="2452" />
            </Array>
          </mxGeometry>
        </mxCell>
        <mxCell id="UbuDSsCWZ6GUP8mgn40k-6" value="OR" style="text;html=1;align=center;verticalAlign=middle;resizable=0;points=[];autosize=1;strokeColor=none;fillColor=none;" parent="1" vertex="1">
          <mxGeometry x="-70" y="2090" width="40" height="30" as="geometry" />
        </mxCell>
        <mxCell id="UbuDSsCWZ6GUP8mgn40k-7" value="" style="endArrow=classic;html=1;rounded=0;" parent="1" edge="1">
          <mxGeometry width="50" height="50" relative="1" as="geometry">
            <mxPoint x="-28" y="2299.5" as="sourcePoint" />
            <mxPoint x="-297" y="2299.5" as="targetPoint" />
          </mxGeometry>
        </mxCell>
        <mxCell id="UbuDSsCWZ6GUP8mgn40k-8" value="OR" style="text;html=1;align=center;verticalAlign=middle;resizable=0;points=[];autosize=1;strokeColor=none;fillColor=none;" parent="1" vertex="1">
          <mxGeometry x="-70" y="2270" width="40" height="30" as="geometry" />
        </mxCell>
        <mxCell id="LEEZjQWYhqCcAPXR_jvx-1" value="" style="endArrow=classic;html=1;rounded=0;" edge="1" parent="1">
          <mxGeometry width="50" height="50" relative="1" as="geometry">
            <mxPoint x="-396" y="2280" as="sourcePoint" />
            <mxPoint x="-720" y="2160" as="targetPoint" />
          </mxGeometry>
        </mxCell>
        <mxCell id="LEEZjQWYhqCcAPXR_jvx-2" value="if input not needed" style="text;html=1;align=center;verticalAlign=middle;resizable=0;points=[];autosize=1;strokeColor=none;fillColor=none;" vertex="1" parent="1">
          <mxGeometry x="-680" y="2210" width="120" height="30" as="geometry" />
        </mxCell>
        <mxCell id="LEEZjQWYhqCcAPXR_jvx-3" value="if founded" style="text;html=1;align=center;verticalAlign=middle;resizable=0;points=[];autosize=1;strokeColor=none;fillColor=none;" vertex="1" parent="1">
          <mxGeometry x="-329" y="1800" width="80" height="30" as="geometry" />
        </mxCell>
        <mxCell id="LEEZjQWYhqCcAPXR_jvx-4" value="if command founded" style="text;html=1;align=center;verticalAlign=middle;resizable=0;points=[];autosize=1;strokeColor=none;fillColor=none;" vertex="1" parent="1">
          <mxGeometry x="-299" y="1720" width="130" height="30" as="geometry" />
        </mxCell>
        <mxCell id="LEEZjQWYhqCcAPXR_jvx-6" value="" style="endArrow=none;html=1;rounded=0;dashed=1;" edge="1" parent="1" target="LEEZjQWYhqCcAPXR_jvx-5">
          <mxGeometry width="50" height="50" relative="1" as="geometry">
            <mxPoint x="-540" y="2560" as="sourcePoint" />
            <mxPoint x="-541" y="1540" as="targetPoint" />
          </mxGeometry>
        </mxCell>
        <mxCell id="LEEZjQWYhqCcAPXR_jvx-5" value="write to eeprom" style="rounded=0;whiteSpace=wrap;html=1;" vertex="1" parent="1">
          <mxGeometry x="-591" y="2139" width="100" height="40" as="geometry" />
        </mxCell>
        <mxCell id="LEEZjQWYhqCcAPXR_jvx-8" value="" style="endArrow=classic;html=1;rounded=0;" edge="1" parent="1">
          <mxGeometry width="50" height="50" relative="1" as="geometry">
            <mxPoint x="-591" y="2120" as="sourcePoint" />
            <mxPoint x="-720" y="2120" as="targetPoint" />
          </mxGeometry>
        </mxCell>
        <mxCell id="LEEZjQWYhqCcAPXR_jvx-10" value="" style="curved=1;endArrow=classic;html=1;rounded=0;exitX=1;exitY=0.75;exitDx=0;exitDy=0;entryX=1;entryY=0.75;entryDx=0;entryDy=0;" edge="1" parent="1" source="B3DWIwTIMvHQkc7ydCQr-52" target="LEEZjQWYhqCcAPXR_jvx-5">
          <mxGeometry width="50" height="50" relative="1" as="geometry">
            <mxPoint x="-230" y="2250" as="sourcePoint" />
            <mxPoint x="-180" y="2200" as="targetPoint" />
            <Array as="points">
              <mxPoint x="-440" y="2130" />
              <mxPoint x="-440" y="2170" />
            </Array>
          </mxGeometry>
        </mxCell>
        <mxCell id="B3DWIwTIMvHQkc7ydCQr-238" value="split to words" style="rounded=0;whiteSpace=wrap;html=1;" parent="1" vertex="1">
          <mxGeometry x="-589.5" y="2320" width="100" height="40" as="geometry" />
        </mxCell>
        <mxCell id="B3DWIwTIMvHQkc7ydCQr-237" value="Waiting input" style="rounded=0;whiteSpace=wrap;html=1;" parent="1" vertex="1">
          <mxGeometry x="-589.5" y="2280" width="100" height="40" as="geometry" />
        </mxCell>
      </root>
    </mxGraphModel>
  </diagram>
</mxfile>
